<svg width="138" height="42" viewBox="0 0 138 42" fill="none" xmlns="http://www.w3.org/2000/svg">
<path d="M15.3523 21.763L14.2962 17.7281H9.70921L8.67646 21.763H5.02612L9.56501 5H14.656L19.1949 21.763H15.3523ZM12.1112 8.48279H11.9189L10.286 14.8235H13.7441L12.1112 8.48279Z" fill="white"/>
<path d="M33.5078 21.763H29.4015L27.6724 18.4244L26.4955 15.7821H26.2799L25.0796 18.4244L23.3025 21.763H19.5327L24.2391 13.0931L19.8444 5H23.9507L25.3199 7.66565L26.5449 10.356H26.7372L27.9856 7.66565L29.4262 5H33.196L28.8013 13.1412L33.5078 21.763Z" fill="white"/>
<path d="M47.9168 21.763H43.8105L42.0815 18.4244L40.9045 15.7821H40.6889L39.4886 18.4244L37.7115 21.763H33.9417L38.6481 13.0931L34.2535 5H38.3597L39.729 7.66565L40.954 10.356H41.1463L42.3946 7.66565L43.8353 5H47.6051L43.2104 13.1412L47.9168 21.763Z" fill="white"/>
<path d="M50.0538 21.763V5H60.7645V7.95405H53.656V11.7967H60.5241V14.7507H53.656V18.8089H60.7645V21.763H50.0538Z" fill="white"/>
<path d="M64.7513 21.763V5H68.3783V18.8089H75.5829V21.763H64.7513Z" fill="white"/>
<path d="M87.3977 21.763L86.3416 17.7281H81.7547L80.7219 21.763H77.0716L81.6105 5H86.7015L91.2403 21.763H87.3977ZM84.1553 8.48279H83.963L82.3301 14.8235H85.7882L84.1553 8.48279Z" fill="white"/>
<path d="M10.7241 31.9251L10.8409 29.0768H10.709L8.81108 34.3202L6.91312 29.0768H6.78128L6.89802 31.9251V36.4668H5.00006V26.2725H7.58469L8.84129 29.7044H8.95803L10.2146 26.2725H12.6248V36.4668H10.7269V31.9251H10.7241Z" fill="white"/>
<path d="M14.3607 36.4668V26.2725H20.8745V28.0688H16.5512V30.4048H20.7275V32.2012H16.5512V34.6691H20.8745V36.4654H14.3607V36.4668Z" fill="white"/>
<path d="M22.5527 31.3699C22.5527 28.0258 23.8382 26.0977 26.5684 26.0977C28.671 26.0977 29.7669 27.2513 30.1761 29.0325L28.1312 29.5296C27.9115 28.5655 27.5476 27.8651 26.5244 27.8651C25.342 27.8651 24.8888 28.8581 24.8888 30.4786V32.2598C24.8888 33.8804 25.342 34.8733 26.5244 34.8733C27.5462 34.8733 27.9115 34.1729 28.1312 33.2088L30.1761 33.7046C29.7669 35.4858 28.6723 36.6394 26.5684 36.6394C23.8368 36.6394 22.5527 34.7112 22.5527 31.3672V31.3699Z" fill="white"/>
<path d="M36.3836 32.2025H33.8127V36.4668H31.6071V26.2725H33.8127V30.4048H36.3836V26.2725H38.5892V36.4668H36.3836V32.2025Z" fill="white"/>
<path d="M45.8322 36.4668L45.1895 34.0126H42.4002L41.7726 36.4668H39.5533L42.3137 26.2725H45.4092L48.1696 36.4668H45.8336H45.8322ZM43.8601 28.3915H43.7433L42.7504 32.2465H44.853L43.8601 28.3915Z" fill="white"/>
<path d="M51.1621 29.6907H51.0014V36.4668H49.1323V26.2725H51.7609L54.0832 33.0485H54.2439V26.2725H56.113V36.4668H53.4844L51.1621 29.6907Z" fill="white"/>
<path d="M58.0989 36.4673V34.8468H60.2894V27.895H58.0989V26.2744H64.6703V27.895H62.4798V34.8468H64.6703V36.4673H58.0989Z" fill="white"/>
<path d="M66.3636 31.3699C66.3636 28.0258 67.649 26.0977 70.3792 26.0977C72.4818 26.0977 73.5777 27.2513 73.987 29.0325L71.9421 29.5296C71.7224 28.5655 71.3584 27.8651 70.3353 27.8651C69.1528 27.8651 68.6996 28.8581 68.6996 30.4786V32.2598C68.6996 33.8804 69.1528 34.8733 70.3353 34.8733C71.3571 34.8733 71.7224 34.1729 71.9421 33.2088L73.987 33.7046C73.5777 35.4858 72.4832 36.6394 70.3792 36.6394C67.6477 36.6394 66.3636 34.7112 66.3636 31.3672V31.3699Z" fill="white"/>
<path d="M80.8797 36.4668L80.237 34.0126H77.4478L76.8201 36.4668H74.6008L77.3612 26.2725H80.4568L83.2172 36.4668H80.8811H80.8797ZM78.909 28.3915H78.7923L77.7993 32.2465H79.9019L78.909 28.3915Z" fill="white"/>
<path d="M84.6332 36.4668V26.2725H86.8388V34.6704H91.2198V36.4668H84.6332Z" fill="white"/>
<path d="M131.047 5.06543H102.946C102.004 5.06543 101.24 5.82901 101.24 6.77112V34.8696C101.24 35.8118 102.004 36.5753 102.946 36.5753H131.047C131.989 36.5753 132.753 35.8118 132.753 34.8696V6.77112C132.753 5.82901 131.989 5.06543 131.047 5.06543ZM102.504 14.3808C102.504 14.172 102.587 13.9743 102.737 13.8301L108.334 8.38479C108.634 8.09227 109.115 8.09639 109.412 8.39303L114.85 13.8315C114.993 13.9743 115.074 14.1693 115.074 14.3739V18.4679C115.074 19.1504 114.25 19.4937 113.766 19.0103L109.331 14.5964C109.031 14.2984 108.546 14.2984 108.248 14.5992L103.07 19.778C102.861 19.9868 102.505 19.8371 102.505 19.5432V14.3822L102.504 14.3808ZM127.643 31.2591C127.643 31.9417 126.819 32.285 126.335 31.8044L121.901 27.3877C121.6 27.0911 121.117 27.0911 120.816 27.3904L115.073 33.1337V33.1077L109.329 27.3891C109.03 27.0924 108.545 27.0924 108.247 27.3918L103.068 32.5707C102.859 32.7794 102.504 32.6297 102.504 32.3358V27.1748C102.504 26.9688 102.587 26.7683 102.737 26.6255L108.334 21.1802C108.634 20.8877 109.115 20.8904 109.412 21.1871L114.54 26.3151C114.836 26.6118 115.316 26.6159 115.616 26.322L120.905 21.1802C121.206 20.8877 121.685 20.8904 121.982 21.1871L127.336 26.5417C127.534 26.7395 127.644 27.0045 127.644 27.2819V31.2619L127.643 31.2591Z" fill="white"/>
</svg>
