<svg width="61" height="105" viewBox="0 0 61 105" fill="none" xmlns="http://www.w3.org/2000/svg">
<path d="M27.2441 104.43V0.134223H33.9255V104.43H27.2441ZM49.7328 31.4228C49.2439 27.2945 47.2612 24.0896 43.7847 21.8081C40.3082 19.5266 36.044 18.3859 30.9922 18.3859C27.2984 18.3859 24.0664 18.9834 21.296 20.1785C18.5529 21.3735 16.4072 23.0167 14.8591 25.1081C13.3381 27.1994 12.5776 29.5759 12.5776 32.2376C12.5776 34.4648 13.1072 36.3796 14.1665 37.982C15.2529 39.5573 16.6381 40.8746 18.322 41.9338C20.0059 42.9659 21.7713 43.8215 23.6182 44.5005C25.4651 45.1523 27.1626 45.6819 28.7108 46.0893L37.1848 48.3708C39.3576 48.9412 41.7749 49.7288 44.4366 50.7337C47.1254 51.7387 49.6921 53.1103 52.1365 54.8485C54.6081 56.5596 56.6451 58.7596 58.2475 61.4485C59.85 64.1373 60.6512 67.4373 60.6512 71.3484C60.6512 75.857 59.4697 79.931 57.1068 83.5705C54.771 87.2099 51.3488 90.1025 46.8402 92.2482C42.3588 94.3938 36.9132 95.4667 30.5034 95.4667C24.5281 95.4667 19.3541 94.5025 14.9813 92.5741C10.6356 90.6457 7.21345 87.9568 4.71471 84.5075C2.24313 81.0581 0.844379 77.052 0.518456 72.4891H10.948C11.2196 75.6397 12.2788 78.2471 14.1257 80.3112C15.9998 82.3483 18.3627 83.8692 21.2146 84.8742C24.0935 85.8519 27.1898 86.3408 30.5034 86.3408C34.3601 86.3408 37.823 85.7161 40.8921 84.4668C43.9613 83.1902 46.3921 81.4248 48.1847 79.1705C49.9772 76.8891 50.8735 74.2273 50.8735 71.1854C50.8735 68.4151 50.0995 66.1608 48.5513 64.4225C47.0032 62.6842 44.9662 61.2719 42.4403 60.1855C39.9144 59.0991 37.1848 58.1485 34.2515 57.3337L23.9849 54.4004C17.4664 52.5263 12.306 49.851 8.50357 46.3745C4.70113 42.898 2.79992 38.3487 2.79992 32.7265C2.79992 28.0549 4.06287 23.9809 6.58877 20.5044C9.14183 17.0007 12.564 14.2847 16.8553 12.3563C21.1738 10.4008 25.9948 9.42303 31.3182 9.42303C36.6959 9.42303 41.4761 10.3872 45.6588 12.3156C49.8414 14.2168 53.155 16.8242 55.5994 20.1377C58.071 23.4513 59.3747 27.213 59.5105 31.4228H49.7328Z" fill="#00AEEF"/>
</svg>
