<svg width="157" height="101" viewBox="0 0 157 101" fill="none" xmlns="http://www.w3.org/2000/svg">
<g clip-path="url(#clip0_730_1032)">
<path d="M59.728 43.4688V32.7561C59.728 29.4696 57.0636 26.8052 53.7771 26.8052C50.4906 26.8052 47.8238 29.4696 47.8238 32.7561" stroke="#002267" stroke-width="3.96807" stroke-miterlimit="10" stroke-linecap="round" stroke-linejoin="round"/>
<path d="M90.2432 43.4688V32.7561C90.2432 29.4696 92.9076 26.8052 96.1941 26.8052C99.4806 26.8052 102.147 29.4696 102.147 32.7561" stroke="#002267" stroke-width="3.96807" stroke-miterlimit="10" stroke-linecap="round" stroke-linejoin="round"/>
<path d="M47.824 48.0645V32.7522C47.824 29.4657 45.1595 26.8012 41.873 26.8012C38.5866 26.8012 35.9197 29.4657 35.9197 32.7522V35.7288" stroke="#002267" stroke-width="3.96807" stroke-miterlimit="10" stroke-linecap="round" stroke-linejoin="round"/>
<path d="M102.148 48.0645V32.7522C102.148 29.4657 104.812 26.8012 108.099 26.8012C111.385 26.8012 114.052 29.4657 114.052 32.7522V35.7288" stroke="#002267" stroke-width="3.96807" stroke-miterlimit="10" stroke-linecap="round" stroke-linejoin="round"/>
<path d="M24.0177 47.637C24.0177 50.9234 26.6821 53.5879 29.9686 53.5879C33.2551 53.5879 35.9196 50.9234 35.9196 47.637V35.7327C35.9196 32.4438 33.2551 29.7794 29.9686 29.7794C26.6821 29.7794 24.0177 32.4438 24.0177 35.7327V38.7094" stroke="#002267" stroke-width="3.96807" stroke-miterlimit="10" stroke-linecap="round" stroke-linejoin="round"/>
<path d="M125.954 47.637C125.954 50.9234 123.289 53.5879 120.003 53.5879C116.716 53.5879 114.052 50.9234 114.052 47.637V35.7327C114.052 32.4438 116.716 29.7794 120.003 29.7794C123.289 29.7794 125.954 32.4438 125.954 35.7327V38.7094" stroke="#002267" stroke-width="3.96807" stroke-miterlimit="10" stroke-linecap="round" stroke-linejoin="round"/>
<path d="M12.1135 50.6077C12.1135 53.8941 14.7779 56.5586 18.0644 56.5586C21.3509 56.5586 24.0177 53.8941 24.0177 50.6077V38.7034C24.0177 35.4145 21.3509 32.7501 18.0644 32.7501C14.7779 32.7501 12.1135 35.4145 12.1135 38.7034V50.6077Z" stroke="#002267" stroke-width="3.96807" stroke-miterlimit="10" stroke-linecap="round" stroke-linejoin="round"/>
<path d="M137.858 50.6077C137.858 53.8941 135.193 56.5586 131.907 56.5586C128.62 56.5586 125.953 53.8941 125.953 50.6077V38.7034C125.953 35.4145 128.62 32.7501 131.907 32.7501C135.193 32.7501 137.858 35.4145 137.858 38.7034V50.6077Z" stroke="#002267" stroke-width="3.96807" stroke-miterlimit="10" stroke-linecap="round" stroke-linejoin="round"/>
<mask id="mask0_730_1032" style="mask-type:luminance" maskUnits="userSpaceOnUse" x="33" y="-1" width="6" height="13">
<path d="M37.9521 0.12146H33.6814V10.7483H37.9521V0.12146Z" fill="white" stroke="white" stroke-width="0.610108"/>
</mask>
<g mask="url(#mask0_730_1032)">
<path d="M35.9199 1.793V8.93555" stroke="#002267" stroke-width="3.96807" stroke-miterlimit="10" stroke-linecap="round" stroke-linejoin="round"/>
</g>
<mask id="mask1_730_1032" style="mask-type:luminance" maskUnits="userSpaceOnUse" x="111" y="-1" width="6" height="13">
<path d="M112.019 0.12146H116.29V10.7483H112.019V0.12146Z" fill="white" stroke="white" stroke-width="0.610108"/>
</mask>
<g mask="url(#mask1_730_1032)">
<path d="M114.051 1.793V8.93555" stroke="#002267" stroke-width="3.96807" stroke-miterlimit="10" stroke-linecap="round" stroke-linejoin="round"/>
</g>
<path d="M56.7542 8.57749L53.7775 13.7324" stroke="#002267" stroke-width="3.96807" stroke-miterlimit="10" stroke-linecap="round" stroke-linejoin="round"/>
<path d="M93.217 8.57749L96.1937 13.7324" stroke="#002267" stroke-width="3.96807" stroke-miterlimit="10" stroke-linecap="round" stroke-linejoin="round"/>
<path d="M74.981 23.83L69.8236 26.8066" stroke="#002267" stroke-width="3.96807" stroke-miterlimit="10" stroke-linecap="round" stroke-linejoin="round"/>
<path d="M74.9905 23.83L80.1478 26.8066" stroke="#002267" stroke-width="3.96807" stroke-miterlimit="10" stroke-linecap="round" stroke-linejoin="round"/>
<path d="M15.0878 8.57749L18.0645 13.7324" stroke="#002267" stroke-width="3.96807" stroke-miterlimit="10" stroke-linecap="round" stroke-linejoin="round"/>
<path d="M134.884 8.57749L131.907 13.7324" stroke="#002267" stroke-width="3.96807" stroke-miterlimit="10" stroke-linecap="round" stroke-linejoin="round"/>
<path d="M43.6536 60.7384C38.7036 65.6884 35.92 72.4043 35.92 79.4062" stroke="#002267" stroke-width="3.96807" stroke-miterlimit="10" stroke-linecap="round" stroke-linejoin="round"/>
<path d="M106.318 60.7384C111.268 65.6884 114.052 72.4043 114.052 79.4062" stroke="#002267" stroke-width="3.96807" stroke-miterlimit="10" stroke-linecap="round" stroke-linejoin="round"/>
<path d="M-3.13937 23.83L2.01794 26.8066" stroke="#002267" stroke-width="3.96807" stroke-miterlimit="10" stroke-linecap="round" stroke-linejoin="round"/>
<path d="M153.111 23.83L147.954 26.8066" stroke="#002267" stroke-width="3.96807" stroke-miterlimit="10" stroke-linecap="round" stroke-linejoin="round"/>
<mask id="mask2_730_1032" style="mask-type:luminance" maskUnits="userSpaceOnUse" x="33" y="97" width="6" height="5">
<path d="M37.9519 97.3871H33.6811V101.098H37.9519V97.3871Z" fill="white" stroke="white" stroke-width="0.610108"/>
</mask>
<g mask="url(#mask2_730_1032)">
<path d="M34.2421 99.4125C34.2421 100.341 34.9947 101.093 35.9199 101.093C36.8477 101.093 37.6001 100.34 37.6001 99.4125C37.6001 98.4852 36.8482 97.7347 35.9199 97.7347C34.9942 97.7347 34.2421 98.485 34.2421 99.4125Z" fill="#01153D" stroke="#002267" stroke-width="0.610108"/>
</g>
<mask id="mask3_730_1032" style="mask-type:luminance" maskUnits="userSpaceOnUse" x="111" y="97" width="6" height="5">
<path d="M112.019 97.3871H116.289V101.098H112.019V97.3871Z" fill="white" stroke="white" stroke-width="0.610108"/>
</mask>
<g mask="url(#mask3_730_1032)">
<path d="M115.729 99.4125C115.729 100.341 114.977 101.093 114.051 101.093C113.124 101.093 112.371 100.34 112.371 99.4125C112.371 98.4852 113.123 97.7347 114.051 97.7347C114.977 97.7347 115.729 98.485 115.729 99.4125Z" fill="#01153D" stroke="#002267" stroke-width="0.610108"/>
</g>
<mask id="mask4_730_1032" style="mask-type:luminance" maskUnits="userSpaceOnUse" x="9" y="48" width="21" height="54">
<path d="M28.8011 48.5726H9.88779V101.092H28.8011V48.5726Z" fill="white" stroke="white" stroke-width="0.610108"/>
</mask>
<g mask="url(#mask4_730_1032)">
<path d="M12.1145 50.5981C12.1145 64.5424 18.0654 72.3641 18.0654 86.3108V99.4043H26.993" stroke="#002267" stroke-width="3.96807" stroke-miterlimit="10" stroke-linecap="round" stroke-linejoin="round"/>
</g>
<mask id="mask5_730_1032" style="mask-type:luminance" maskUnits="userSpaceOnUse" x="120" y="48" width="21" height="54">
<path d="M121.171 48.5726H140.084V101.092H121.171V48.5726Z" fill="white" stroke="white" stroke-width="0.610108"/>
</mask>
<g mask="url(#mask5_730_1032)">
<path d="M137.858 50.5981C137.858 64.5424 131.907 72.3641 131.907 86.3108V99.4043H122.979" stroke="#002267" stroke-width="3.96807" stroke-miterlimit="10" stroke-linecap="round" stroke-linejoin="round"/>
</g>
<mask id="mask6_730_1032" style="mask-type:luminance" maskUnits="userSpaceOnUse" x="32" y="40" width="40" height="62">
<path d="M71.5089 41.2562H33.0721V101.097H71.5089V41.2562Z" fill="white" stroke="white" stroke-width="0.610108"/>
</mask>
<g mask="url(#mask6_730_1032)">
<path d="M44.85 99.4199H53.7776V80.3326L65.7939 68.9527C69.5141 65.4303 70.5651 59.9226 68.3988 55.2777L64.4783 46.872C63.5656 44.9154 61.7281 43.688 59.7286 43.4688C58.6847 43.3544 57.5932 43.514 56.5684 43.9931L34.9906 54.0527C37.7695 60.0132 44.8524 62.5894 50.8105 59.813L56.2061 57.2963" stroke="#002267" stroke-width="3.96807" stroke-miterlimit="10" stroke-linecap="round" stroke-linejoin="round"/>
</g>
<mask id="mask7_730_1032" style="mask-type:luminance" maskUnits="userSpaceOnUse" x="78" y="40" width="40" height="62">
<path d="M78.4625 41.2562H116.899V101.097H78.4625V41.2562Z" fill="white" stroke="white" stroke-width="0.610108"/>
</mask>
<g mask="url(#mask7_730_1032)">
<path d="M105.122 99.4199H96.1944V80.3326L84.1782 68.9527C80.4579 65.4303 79.4069 59.9226 81.5733 55.2777L85.4937 46.872C86.4065 44.9154 88.244 43.688 90.2435 43.4688C91.2873 43.3544 92.3789 43.514 93.4036 43.9931L114.981 54.0527C112.203 60.0132 105.12 62.5894 99.1615 59.813L93.7659 57.2963" stroke="#002267" stroke-width="3.96807" stroke-miterlimit="10" stroke-linecap="round" stroke-linejoin="round"/>
</g>
</g>
<defs>
<clipPath id="clip0_730_1032">
<rect width="156.25" height="100" fill="white" transform="translate(0.375 0.449219)"/>
</clipPath>
</defs>
</svg>
