<svg width="100" height="86" viewBox="0 0 100 86" fill="none" xmlns="http://www.w3.org/2000/svg">
<path d="M0 59.6248C4.35086 58.4943 8.66663 57.2179 12.9824 55.8686C17.2631 54.5193 21.5438 53.0606 25.7543 51.4925C34.2104 48.3927 42.5262 44.8918 50.6314 40.8804C58.7015 36.8689 66.5612 32.3469 73.8594 26.9497C77.5085 24.2511 80.9471 21.3337 84.1751 18.088C87.3681 14.8424 90.2453 11.3415 92.5961 7.43945L93.7891 8.20527C91.333 12.1803 88.3155 15.7541 85.0172 18.9997C81.719 22.2089 78.1751 25.1628 74.4559 27.8249C67.0524 33.1857 59.0875 37.5983 50.9121 41.5368C42.7367 45.4388 34.3507 48.8303 25.8595 51.8207C21.6139 53.3159 17.3333 54.7016 13.0175 56.0145C8.70172 57.3638 4.35086 58.5672 0 59.6248Z" fill="#01153D"/>
<path d="M0 59.6248C4.35086 58.4943 8.66663 57.2179 12.9824 55.8686C17.2631 54.5193 21.5438 53.0606 25.7543 51.4925C34.2104 48.3927 42.5262 44.8918 50.6314 40.8804C58.7015 36.8689 66.5612 32.3469 73.8594 26.9497C77.5085 24.2511 80.9471 21.3337 84.1751 18.088C87.3681 14.8424 90.2453 11.3415 92.5961 7.43945L93.7891 8.20527C91.333 12.1803 88.3155 15.7541 85.0172 18.9997C81.719 22.2089 78.1751 25.1628 74.4559 27.8249C67.0524 33.1857 59.0875 37.5983 50.9121 41.5368C42.7367 45.4388 34.3507 48.8303 25.8595 51.8207C21.6139 53.3159 17.3333 54.7016 13.0175 56.0145C8.70172 57.3638 4.35086 58.5672 0 59.6248Z" stroke="#01153D"/>
<path d="M99.158 0L87.0527 3.93852L100 12.1073L99.158 0Z" fill="#01153D"/>
<path d="M92.2809 20.3486V85.5165H75.6143V32.8206L80.4914 29.2832V81.2498H87.544V24.6154L92.2809 20.3486Z" fill="#01153D"/>
<path d="M73.0533 32.9297V85.6621H56.3867V42.5572L61.2639 40.1138V81.3588H68.3165V36.4306L73.0533 32.9297Z" fill="#01153D"/>
<path d="M52.2448 43.6514V85.7716H35.6133V50.5802L40.5957 48.5745L40.4905 81.5049H47.5431V45.8394L52.2448 43.6514Z" fill="#01153D"/>
<path d="M32.2106 51.7109V85.5165H15.5439V57.4364L20.4211 55.613V81.2498H27.4737V53.5343L32.2106 51.7109Z" fill="#01153D"/>
</svg>
