<svg width="124" height="111" viewBox="0 0 124 111" fill="none" xmlns="http://www.w3.org/2000/svg">
<path d="M48.071 104.765H34.566C33.7932 104.765 33.1309 103.997 33.1309 103.004V72.6164C33.1309 71.6682 33.7564 70.8555 34.566 70.8555H48.071C48.8438 70.8555 49.5062 71.6231 49.5062 72.6164V103.004C49.5062 103.997 48.8438 104.765 48.071 104.765Z" stroke="#01153D" stroke-width="3.03795" stroke-miterlimit="10" stroke-linecap="round" stroke-linejoin="round"/>
<path d="M49.0283 71.3086C49.0283 71.3086 60.583 67.9674 60.4726 51.0805C60.4726 51.0805 73.3153 46.1138 71.4386 71.9859C71.4386 71.9859 82.3309 69.1865 87.4827 72.5277C89.9114 74.1081 91.3466 75.4626 90.5738 78.4878C90.0218 80.6551 88.0347 83.0482 84.1341 82.5515C84.1341 82.5515 89.9114 83.2739 89.6906 86.3894C89.5066 89.234 85.5692 91.5819 83.9133 91.2658C83.9133 91.2658 88.5867 92.6204 88.3659 95.4198C88.1451 98.2193 84.2076 99.2577 83.3245 99.2126C83.3245 99.2126 87.4827 100.838 87.2619 103.863C87.0779 106.392 86.0476 110.004 62.9381 108.875C59.8839 108.74 56.8664 107.972 54.0697 106.572C50.8682 104.992 49.3227 103.863 49.3227 103.863" stroke="#01153D" stroke-width="3.03795" stroke-miterlimit="10" stroke-linejoin="round"/>
<path d="M117.878 75.734L110.813 71.5348L103.858 75.9597L105.109 66.839L99.332 60.5177L107.17 59.0729L110.556 50.7197L114.162 58.9374L122 60.1113L116.443 66.6584L117.878 75.734Z" stroke="#01153D" stroke-width="3.03795" stroke-miterlimit="10" stroke-linejoin="round"/>
<path d="M101.54 45.1663L94.4743 41.0124L87.5194 45.4373L88.7337 36.3165L82.9932 29.9953L90.7944 28.5052L94.1799 20.1973L97.7862 28.3698L105.661 29.5889L100.068 36.0908L101.54 45.1663Z" stroke="#01153D" stroke-width="3.03795" stroke-miterlimit="10" stroke-linejoin="round"/>
<path d="M37.6207 44.1715L30.5553 39.9723L23.6004 44.3972L24.8148 35.2765L19.0742 28.9552L26.9123 27.5104L30.2978 19.1572L33.904 27.3749L41.7421 28.5489L36.1855 35.0959L37.6207 44.1715Z" stroke="#01153D" stroke-width="3.03795" stroke-miterlimit="10" stroke-linejoin="round"/>
<path d="M20.5464 76.275L13.4811 72.0758L6.52621 76.5007L7.74056 67.38L2 61.0587L9.80128 59.6139L13.1867 51.2607L16.8298 59.4784L24.6679 60.6524L19.0745 67.1994L20.5464 76.275Z" stroke="#01153D" stroke-width="3.03795" stroke-miterlimit="10" stroke-linejoin="round"/>
<path d="M71.2911 34.7804L62.1283 29.317L53.1495 35.0964L54.7318 23.1312L47.2617 14.8232L57.3813 12.9268L61.7603 2L66.4705 12.7462L76.6269 14.3265L69.3776 22.9054L71.2911 34.7804Z" stroke="#01153D" stroke-width="3.03795" stroke-miterlimit="10" stroke-linejoin="round"/>
</svg>
