<svg width="94" height="105" viewBox="0 0 94 105" fill="none" xmlns="http://www.w3.org/2000/svg">
<path d="M46.8864 3C52.7831 9.80881 52.7831 20.8174 46.8864 27.6262C40.9897 20.8174 40.9897 9.77699 46.8864 3Z" stroke="#00AEEF" stroke-width="2.90233" stroke-miterlimit="10"/>
<path d="M77.7751 12.1945L78.3538 12.1309L78.3813 12.449C78.9049 19.7351 74.2206 26.0985 67.9106 26.703L67.3319 26.7666L67.3044 26.4484C66.7808 19.1624 71.4927 12.799 77.7751 12.1945Z" stroke="#00AEEF" stroke-width="2.90233" stroke-miterlimit="10"/>
<path d="M89.3474 41.0216L91.8549 42.1034C89.375 49.8031 81.9628 53.7484 75.2946 50.8848L72.7871 49.8031C75.267 42.1034 82.6792 38.1899 89.3474 41.0216Z" stroke="#00AEEF" stroke-width="2.90233" stroke-miterlimit="10"/>
<path d="M68.7096 30.8717L70.5282 30.0127L70.7486 30.6172C73.4214 38.126 70.3353 46.6847 63.8324 49.771L62.0138 50.63L61.7934 50.0255C59.1481 42.5485 62.2343 33.958 68.7096 30.8717Z" stroke="#00AEEF" stroke-width="2.90233" stroke-miterlimit="10"/>
<path d="M62.9501 23.2354L63.7492 23.2672L63.6665 25.3989C63.3083 33.8622 57.0534 40.3529 49.7239 39.9392L48.9248 39.9074L49.0075 37.7757C49.3932 29.3124 55.6206 22.79 62.9501 23.2354Z" stroke="#00AEEF" stroke-width="2.90233" stroke-miterlimit="10"/>
<path d="M80.007 64.0247L80.8336 66.3155L80.4754 66.4746C74.0276 69.5608 66.6154 65.9973 63.9702 58.5522L63.1436 56.2614L63.5018 56.1023C69.9495 53.0161 77.3342 56.5477 80.007 64.0247Z" stroke="#00AEEF" stroke-width="2.90233" stroke-miterlimit="10"/>
<path d="M81.4044 34.647C82.8812 32.5007 83.1029 29.8656 81.8994 28.7615C80.6959 27.6575 78.523 28.5024 77.0462 30.6488C75.5693 32.7952 75.3477 35.4302 76.5512 36.5343C77.7547 37.6384 79.9275 36.7934 81.4044 34.647Z" stroke="#00AEEF" stroke-width="2.90233" stroke-miterlimit="10"/>
<path d="M60.7735 16.8834C62.2504 14.737 62.472 12.102 61.2685 10.9979C60.065 9.89379 57.8922 10.7387 56.4153 12.8851C54.9385 15.0315 54.7168 17.6665 55.9203 18.7706C57.1238 19.8747 59.2966 19.0297 60.7735 16.8834Z" stroke="#00AEEF" stroke-width="2.90233" stroke-miterlimit="10"/>
<path d="M89.7466 58.8694C89.9502 57.1102 88.2077 55.3897 85.8546 55.0265C83.5015 54.6632 81.4288 55.7949 81.2252 57.554C81.0215 59.3132 82.764 61.0337 85.1171 61.3969C87.4702 61.7601 89.5429 60.6285 89.7466 58.8694Z" stroke="#00AEEF" stroke-width="2.90233" stroke-miterlimit="10"/>
<path d="M80.1254 79.2422C81.1437 78.3499 80.955 76.0833 79.7039 74.1796C78.4528 72.2759 76.6131 71.456 75.5948 72.3483C74.5765 73.2405 74.7652 75.5071 76.0163 77.4108C77.2674 79.3145 79.1071 80.1345 80.1254 79.2422Z" stroke="#00AEEF" stroke-width="2.90233" stroke-miterlimit="10"/>
<path d="M63.5149 68.2788C63.6193 65.8922 62.5088 63.8877 61.0346 63.8018C59.5603 63.7158 58.2806 65.5809 58.1763 67.9676C58.0719 70.3543 59.1824 72.3587 60.6566 72.4447C62.1309 72.5306 63.4105 70.6655 63.5149 68.2788Z" stroke="#00AEEF" stroke-width="2.90233" stroke-miterlimit="10"/>
<path d="M57.8305 47.9219C58.2753 45.5881 57.4672 43.3991 56.0256 43.0329C54.584 42.6666 53.0548 44.2616 52.61 46.5955C52.1652 48.9293 52.9733 51.1182 54.4149 51.4845C55.8565 51.8508 57.3858 50.2558 57.8305 47.9219Z" stroke="#00AEEF" stroke-width="2.90233" stroke-miterlimit="10"/>
<path d="M16.0807 12.0041L15.5021 11.9404L15.4745 12.2586C14.951 19.5447 19.6353 25.908 25.9453 26.5125L26.5239 26.5762L26.5515 26.258C27.075 19.0038 22.3907 12.6086 16.0807 12.0041Z" stroke="#00AEEF" stroke-width="2.90233" stroke-miterlimit="10"/>
<path d="M4.50747 40.8625L2 41.9443C4.47991 49.644 11.8921 53.5893 18.5603 50.7258L21.0678 49.644C18.5879 41.9443 11.1757 37.999 4.50747 40.8625Z" stroke="#00AEEF" stroke-width="2.90233" stroke-miterlimit="10"/>
<path d="M25.1455 30.6803L23.3269 29.8213L23.1065 30.4258C20.4337 37.9346 23.5198 46.4933 30.0227 49.5795L31.8413 50.4386L32.0617 49.8341C34.7345 42.3571 31.6484 33.7666 25.1455 30.6803Z" stroke="#00AEEF" stroke-width="2.90233" stroke-miterlimit="10"/>
<path d="M30.9055 23.0451L30.1064 23.0769L30.1891 25.2086C30.5473 33.6719 36.8022 40.1626 44.1317 39.7489L44.9308 39.7171L44.8482 37.5854C44.4624 29.1221 38.235 22.6315 30.9055 23.0451Z" stroke="#00AEEF" stroke-width="2.90233" stroke-miterlimit="10"/>
<path d="M13.8764 63.8338L13.0498 66.1246L13.408 66.2837C19.8558 69.37 27.268 65.8065 29.9132 58.3613L30.7398 56.0705L30.3816 55.9115C23.9339 52.8252 16.5217 56.3887 13.8764 63.8338Z" stroke="#00AEEF" stroke-width="2.90233" stroke-miterlimit="10"/>
<path d="M17.3291 36.3537C18.5326 35.2496 18.3109 32.6146 16.8341 30.4682C15.3572 28.3218 13.1843 27.4769 11.9809 28.581C10.7774 29.685 10.999 32.3201 12.4759 34.4664C13.9527 36.6128 16.1256 37.4578 17.3291 36.3537Z" stroke="#00AEEF" stroke-width="2.90233" stroke-miterlimit="10"/>
<path d="M37.956 18.5968C39.1595 17.4928 38.9379 14.8577 37.461 12.7114C35.9841 10.565 33.8113 9.72004 32.6078 10.8241C31.4043 11.9282 31.6259 14.5632 33.1028 16.7096C34.5797 18.856 36.7525 19.7009 37.956 18.5968Z" stroke="#00AEEF" stroke-width="2.90233" stroke-miterlimit="10"/>
<path d="M8.7599 61.2314C11.113 60.8681 12.8555 59.1476 12.6518 57.3885C12.4482 55.6293 10.3755 54.4977 8.02241 54.8609C5.66929 55.2241 3.92681 56.9446 4.13047 58.7038C4.33412 60.4629 6.40679 61.5946 8.7599 61.2314Z" stroke="#00AEEF" stroke-width="2.90233" stroke-miterlimit="10"/>
<path d="M17.868 77.2129C19.1191 75.3092 19.3078 73.0426 18.2895 72.1504C17.2712 71.2581 15.4315 72.078 14.1804 73.9817C12.9293 75.8855 12.7405 78.152 13.7588 79.0443C14.7771 79.9366 16.6169 79.1166 17.868 77.2129Z" stroke="#00AEEF" stroke-width="2.90233" stroke-miterlimit="10"/>
<path d="M33.2123 72.2568C34.6865 72.1709 35.797 70.1664 35.6926 67.7797C35.5883 65.3931 34.3086 63.528 32.8344 63.6139C31.3601 63.6999 30.2496 65.7043 30.354 68.091C30.4584 70.4777 31.7381 72.3428 33.2123 72.2568Z" stroke="#00AEEF" stroke-width="2.90233" stroke-miterlimit="10"/>
<path d="M39.4504 51.3197C40.892 50.9534 41.7001 48.7645 41.2553 46.4306C40.8105 44.0968 39.2813 42.5017 37.8397 42.868C36.3981 43.2343 35.59 45.4232 36.0348 47.7571C36.4796 50.091 38.0088 51.686 39.4504 51.3197Z" stroke="#00AEEF" stroke-width="2.90233" stroke-miterlimit="10"/>
<path d="M46.8858 103L51.8457 102.65L49.8066 65.0426L61.9582 54.9885L61.0489 51.9659L49.3658 59.2202L48.6769 41.0527H46.8858H45.0948L44.4059 59.2202L32.7228 51.9659L31.8135 54.9885L43.9651 65.0426L41.926 102.65L46.8858 103Z" stroke="#00AEEF" stroke-width="2.90233" stroke-miterlimit="10"/>
</svg>
