<svg width="100" height="99" viewBox="0 0 100 99" fill="none" xmlns="http://www.w3.org/2000/svg">
<g clip-path="url(#clip0_591_947)">
<path d="M41.3314 72.3973L41.135 73.3582L41.3238 72.3958C40.7923 72.2907 40.2776 72.6364 40.1725 73.1679C40.0674 73.6994 40.4131 74.2156 40.9446 74.3207C40.9461 74.3207 40.9614 74.3238 40.9629 74.3238C41.0253 74.3359 41.0878 74.342 41.1487 74.342C41.6101 74.342 42.0213 74.0146 42.1112 73.544C42.2132 73.0125 41.8644 72.4978 41.3314 72.3973Z" fill="#002267"/>
<path d="M48.8305 72.7105L48.9279 73.6852L48.8274 72.7105C48.2883 72.7654 47.8969 73.2481 47.9533 73.7857C48.0051 74.2913 48.4299 74.6675 48.9264 74.6675C48.9614 74.6675 48.9949 74.6644 49.0284 74.6614L49.0559 74.6583C49.5919 74.5959 49.9726 74.1116 49.9132 73.5756C49.8523 73.0395 49.368 72.6542 48.8305 72.7105Z" fill="#002267"/>
<path d="M45.0763 72.8365C45.0763 72.8365 45.0626 72.835 45.0611 72.835C44.522 72.8106 44.0697 73.2309 44.0453 73.7716C44.0209 74.3137 44.4458 74.7706 44.9865 74.7965C45.0032 74.7965 45.0169 74.7965 45.0322 74.7965C45.553 74.7965 45.9885 74.3868 46.0114 73.8599C46.0357 73.3193 45.6169 72.8609 45.0763 72.8365Z" fill="#002267"/>
<path d="M37.7086 71.3981L37.6964 71.3936C37.1862 71.2108 36.6304 71.4773 36.4476 71.9875C36.2649 72.4977 36.5344 73.0611 37.0446 73.2454C37.1543 73.2835 37.267 73.3018 37.3766 73.3018C37.7787 73.3018 38.1563 73.0535 38.2995 72.653C38.4838 72.1428 38.2188 71.5809 37.7086 71.3981Z" fill="#002267"/>
<path d="M52.5326 72.0221L52.7747 72.9724L52.5295 72.0221C52.0057 72.1576 51.6889 72.6922 51.8244 73.2176C51.9386 73.6592 52.3361 73.9531 52.7732 73.9531C52.8539 73.9531 52.9362 73.944 53.0184 73.9227C53.023 73.9212 53.0397 73.9166 53.0443 73.9151C53.5651 73.7734 53.8697 73.2389 53.7311 72.7165C53.5925 72.1957 53.0549 71.8866 52.5326 72.0221Z" fill="#002267"/>
<path d="M56.0779 70.787L56.4677 71.687L56.0748 70.787C55.5784 71.0047 55.3515 71.5819 55.5677 72.0784C55.7291 72.4485 56.0885 72.6677 56.4677 72.6677C56.5987 72.6677 56.7312 72.6419 56.8591 72.5855C56.8622 72.584 56.8789 72.5779 56.882 72.5749C57.3739 72.3525 57.5916 71.7768 57.3723 71.2834C57.153 70.79 56.5728 70.5692 56.0779 70.787Z" fill="#002267"/>
<path d="M33.9622 26.0747C34.1191 26.0747 34.279 26.0366 34.4267 25.9575C34.9049 25.7031 35.0846 25.1092 34.8303 24.631C34.576 24.1528 33.982 23.9716 33.5038 24.2274L33.4917 24.2335C33.015 24.4879 32.8399 25.0787 33.0942 25.5569C33.2693 25.8874 33.6104 26.0747 33.9622 26.0747Z" fill="#002267"/>
<path d="M22.6165 37.0283C22.7612 37.1045 22.918 37.1395 23.0719 37.1395C23.4252 37.1395 23.7663 36.9491 23.9414 36.6141L23.9582 36.5806C24.1973 36.0933 23.9978 35.5054 23.5105 35.2679C23.0277 35.0288 22.4444 35.2252 22.2023 35.7049C21.9525 36.1846 22.1368 36.7771 22.6165 37.0283Z" fill="#002267"/>
<path d="M21.2354 40.7219C21.3405 40.7569 21.4456 40.7737 21.5507 40.7737C21.9588 40.7737 22.3411 40.5148 22.4797 40.1066L22.4918 40.067C22.6517 39.5508 22.3609 39.001 21.8431 38.8426C21.3299 38.6842 20.7847 38.969 20.6202 39.4792C20.4481 39.9924 20.7237 40.5483 21.2354 40.7219Z" fill="#002267"/>
<path d="M24.5521 33.6006C24.7257 33.7286 24.9267 33.7895 25.1277 33.7895C25.4308 33.7895 25.7293 33.6494 25.9212 33.3844L25.9349 33.3676C26.2486 32.9275 26.1466 32.3168 25.7064 32.0016C25.2663 31.6863 24.6541 31.7884 24.3389 32.227L25.1293 32.8087L24.3358 32.2315C24.016 32.6701 24.1135 33.2823 24.5521 33.6006Z" fill="#002267"/>
<path d="M30.6316 28.192C30.8387 28.192 31.0458 28.1265 31.2225 27.9925C31.6596 27.6727 31.754 27.059 31.4342 26.6219C31.1144 26.1848 30.5006 26.0904 30.0636 26.4102L30.0392 26.427C29.6082 26.7544 29.5229 27.3712 29.8503 27.8037C30.0438 28.058 30.3362 28.192 30.6316 28.192Z" fill="#002267"/>
<path d="M20.3595 55.5946C20.489 56.0164 20.8773 56.286 21.2961 56.286C21.3905 56.286 21.4895 56.2723 21.5855 56.2418C22.1002 56.085 22.3911 55.5398 22.2358 55.0235C22.088 54.5088 21.555 54.2057 21.0357 54.3473C20.5118 54.4905 20.2042 55.0296 20.3474 55.552C20.3504 55.5626 20.3565 55.5839 20.3595 55.5946Z" fill="#002267"/>
<path d="M27.6696 30.7777C27.924 30.7777 28.1798 30.6802 28.3717 30.4838C28.7539 30.1 28.7539 29.4787 28.3717 29.0964C27.9879 28.7127 27.3681 28.7127 26.9843 29.0964L26.9676 29.1132C26.5884 29.5 26.596 30.1198 26.9828 30.499C27.1732 30.6863 27.4214 30.7777 27.6696 30.7777Z" fill="#002267"/>
<path d="M21.444 51.3186C21.3754 50.7856 20.8881 50.4079 20.3551 50.4719C19.8175 50.5359 19.4337 51.0232 19.4977 51.5608L19.5023 51.6004C19.5738 52.0877 19.9926 52.438 20.4708 52.438C20.518 52.438 20.5668 52.4334 20.6155 52.4273C21.1485 52.3496 21.5186 51.8532 21.444 51.3186Z" fill="#002267"/>
<path d="M20.212 48.5088C20.2227 48.5088 20.2318 48.5104 20.241 48.5104C20.7694 48.5104 21.2065 48.09 21.2217 47.557V47.5159C21.2217 46.9738 20.7831 46.5352 20.241 46.5352C19.7034 46.5352 19.2678 46.9677 19.2602 47.5037C19.2465 48.0444 19.6714 48.4936 20.212 48.5088Z" fill="#002267"/>
<path d="M20.4266 44.5758C20.486 44.5865 20.5439 44.5926 20.6002 44.5926C21.0662 44.5926 21.4805 44.2575 21.5657 43.7839C21.5688 43.7687 21.5703 43.755 21.5718 43.7413C21.651 43.2052 21.281 42.7057 20.7449 42.628C20.2149 42.5488 19.7185 42.9128 19.6332 43.4412C19.5403 43.9743 19.8951 44.4814 20.4266 44.5758Z" fill="#002267"/>
<path d="M66.6956 33.9106C66.8844 34.1862 67.1906 34.334 67.5027 34.334C67.6931 34.334 67.888 34.2776 68.0571 34.1603C68.5033 33.8542 68.616 33.2436 68.3099 32.7958L67.4951 33.3425L68.3068 32.7913C68.0023 32.3435 67.3931 32.2263 66.9438 32.5308C66.4961 32.8339 66.3788 33.4446 66.6834 33.8923L66.6956 33.9106Z" fill="#002267"/>
<path d="M71.7043 43.7798C71.1652 43.8392 70.7784 44.325 70.8393 44.8641L70.8439 44.9067C70.9139 45.3956 71.3343 45.7489 71.814 45.7489C71.8597 45.7489 71.9069 45.7458 71.9541 45.7382C72.4856 45.6621 72.8572 45.1732 72.7886 44.6417C72.7262 44.1042 72.2389 43.7189 71.7043 43.7798Z" fill="#002267"/>
<path d="M70.0489 41.0093L70.0535 41.023C70.1784 41.451 70.5698 41.7266 70.9931 41.7266C71.0845 41.7266 71.1774 41.7144 71.2703 41.687C71.7896 41.5347 72.0881 40.9895 71.9343 40.4687L71.9312 40.4565C71.7774 39.9357 71.2322 39.6387 70.7129 39.7925C70.1936 39.9448 69.8966 40.49 70.0489 41.0093Z" fill="#002267"/>
<path d="M68.663 37.3437C68.8351 37.6924 69.1838 37.895 69.5478 37.895C69.6925 37.895 69.8402 37.863 69.9788 37.7945C70.4646 37.5554 70.6656 36.9706 70.4265 36.4848L69.5372 36.899L70.425 36.4817C70.1951 35.9914 69.6118 35.7812 69.1214 36.0112C68.631 36.2411 68.4193 36.8244 68.6493 37.3148L68.663 37.3437Z" fill="#002267"/>
<path d="M64.2239 30.8445C64.4173 31.0409 64.6701 31.1399 64.9245 31.1399C65.1727 31.1399 65.4209 31.0455 65.6113 30.8582C65.9951 30.482 66.0042 29.8683 65.6341 29.4815C65.2671 29.0855 64.6473 29.0612 64.2498 29.4282C63.8523 29.7952 63.828 30.4165 64.195 30.814L64.2239 30.8445Z" fill="#002267"/>
<path d="M72.0225 47.8734C71.4834 47.8597 71.0326 48.2815 71.0143 48.8206C70.9884 49.3582 71.4012 49.8151 71.9387 49.8455C71.957 49.8471 71.9753 49.8471 71.9951 49.8471C72.5114 49.8471 72.9439 49.4435 72.9728 48.9196L72.9743 48.88C72.9895 48.3394 72.5631 47.8901 72.0225 47.8734Z" fill="#002267"/>
<path d="M57.9525 26.0291L57.9753 26.0412C58.1215 26.1189 58.2784 26.1555 58.4322 26.1555C58.7825 26.1555 59.119 25.9681 59.2972 25.6377C59.5515 25.1625 59.3718 24.5686 58.8982 24.3112L58.4231 25.1686L58.8952 24.3082C58.42 24.0478 57.8246 24.2229 57.5642 24.698C57.3037 25.1717 57.4773 25.7686 57.9525 26.0291Z" fill="#002267"/>
<path d="M61.2694 28.1805L61.2847 28.1927C61.4629 28.3267 61.67 28.3922 61.8771 28.3922C62.174 28.3922 62.4664 28.2582 62.6599 28.0039C62.9873 27.5714 62.902 26.9576 62.471 26.6302L62.4634 26.6241C62.0339 26.2952 61.4187 26.3759 61.0882 26.8053C60.7593 27.2348 60.84 27.8516 61.2694 28.1805Z" fill="#002267"/>
<path d="M101.844 27.9362L91.5968 27.9277C90.7249 27.926 89.9056 28.2646 89.2894 28.8808C88.6749 29.4953 88.3363 30.3147 88.338 31.1865V31.4235L87.6642 31.4235C86.833 31.4218 86.0272 31.2593 85.2823 30.9512C85.1926 30.8987 85.0995 30.8564 85.0013 30.8259C84.3648 30.5246 83.7791 30.1115 83.2661 29.5986L81.817 28.1495C81.9694 28.1021 82.115 28.031 82.2521 27.9345C82.3249 27.882 82.3909 27.8261 82.4519 27.7652C82.9699 27.2472 83.0579 26.4211 82.6296 25.7998C82.1573 25.0938 81.2025 24.9042 80.4949 25.3749C80.1817 25.5831 79.9718 25.8844 79.8719 26.2179C78.2569 24.735 76.1764 23.9207 73.9706 23.919L64.0317 23.9105C61.8005 23.9105 59.7047 24.7773 58.1286 26.3533C56.9098 27.5722 56.1158 29.1043 55.8213 30.7667L54.7632 30.765L42.2935 18.2953C40.7902 16.792 38.7943 15.8863 36.6748 15.7475C35.1682 15.6493 33.7462 15.006 32.6763 13.9361L31.7638 13.0237L31.84 12.9475C33.1097 11.6778 33.1097 9.60913 31.8383 8.33778L24.5843 1.08381C23.313 -0.187535 21.2443 -0.187537 19.9746 1.08212L-0.392327 21.4491C-1.66368 22.7204 -1.66368 24.7891 -0.392328 26.0605L6.86164 33.3144C8.13299 34.5858 10.2017 34.5858 11.473 33.3144L11.6406 33.1468L12.118 33.6242C13.2929 34.7991 13.9412 36.3616 13.9429 38.0223L13.9463 42.4238C13.948 44.7583 14.8605 46.9539 16.5127 48.6062L23.5466 55.6401C24.5031 56.5965 25.6356 57.2686 26.8376 57.6647C25.4748 59.1934 24.7299 61.1436 24.7316 63.2106L24.7401 73.1495C24.7418 75.4839 25.6542 77.6796 27.3065 79.3318L30.4197 82.445C31.5962 83.6216 32.2446 85.1841 32.2446 86.8431L32.2463 87.5084C32.2463 87.5118 32.2446 87.5135 32.2446 87.5169L32.0076 87.5169C31.1358 87.5152 30.3164 87.8538 29.7002 88.47C29.0857 89.0845 28.7471 89.9038 28.7488 90.7757L28.7573 101.023C28.759 102.819 30.2216 104.281 32.0177 104.283L35.5254 104.287C36.3786 104.287 37.0693 103.596 37.0693 102.746C37.0693 101.893 36.3786 101.202 35.5288 101.202L32.0194 101.197C31.9196 101.199 31.84 101.119 31.8417 101.019L31.8315 90.774C31.8332 90.6775 31.9094 90.5979 32.0059 90.5996L33.7868 90.603L33.7885 90.6013L58.11 90.6233L60.8338 90.625C60.9354 90.625 61.015 90.7046 61.0133 90.8044L61.0234 101.05C61.0218 101.146 60.9456 101.222 60.8491 101.224L41.7061 101.207C40.8545 101.205 40.1639 101.896 40.1639 102.746C40.1639 103.599 40.8512 104.29 41.7044 104.29L60.8474 104.307C61.7175 104.307 62.5369 103.968 63.1531 103.352C63.7693 102.736 64.1062 101.918 64.1079 101.046L64.0977 90.8011C64.096 89.0049 62.6334 87.5423 60.8372 87.5406L60.7255 87.5406V86.2472C60.7238 84.7389 61.2706 83.2813 62.2677 82.1488C63.6694 80.5541 64.4397 78.504 64.438 76.3795L64.4261 66.9654C65.4283 65.2522 65.3775 63.0921 64.2822 61.4212C64.9949 61.169 65.6636 60.7576 66.2341 60.1871C68.2842 58.1371 68.2842 54.7987 66.2307 52.7453L63.6423 50.1568C64.3246 49.9012 64.9645 49.5017 65.513 48.9532C67.5647 46.9015 67.563 43.5648 65.5096 41.5113L57.8544 33.8562L64.5785 33.8731C65.0068 33.8748 65.3928 33.7021 65.6738 33.4211C65.9514 33.1435 66.1224 32.7592 66.1241 32.3343C66.1258 31.4828 65.4385 30.7921 64.587 30.7904L58.9802 30.7768C59.2239 29.9372 59.6742 29.1686 60.3091 28.5338C61.3028 27.5401 62.6215 26.9932 64.0283 26.9949L73.9672 27.0034C75.4789 27.0051 76.9026 27.5959 77.9725 28.6658L81.0857 31.779C82.8446 33.5379 85.1791 34.5045 87.6608 34.5079L88.3397 34.5096L88.3431 37.6753L88.36 56.8217L87.2918 56.82C87.2799 56.8217 87.2698 56.8217 87.2596 56.8217L87.0717 56.82C84.8117 56.8183 82.6313 57.6377 80.9333 59.1291C79.9024 60.0348 78.5769 60.5342 77.1972 60.5325L70.0499 60.5528C69.1983 60.5545 68.5093 61.2469 68.511 62.0984C68.5161 62.9499 69.2085 63.6389 70.0583 63.6355L77.2006 63.6169C79.3251 63.6186 81.3752 62.8483 82.9699 61.4466C84.1024 60.4495 85.56 59.9027 87.0683 59.9044H87.1733C87.2342 59.9078 87.2952 59.9078 87.3561 59.9044H88.3617L88.3617 60.0161C88.3634 61.8123 89.826 63.2749 91.6222 63.2766L101.867 63.2868C102.738 63.2868 103.557 62.9482 104.173 62.332C104.789 61.7158 105.128 60.8964 105.128 60.0263L105.103 31.195C105.101 29.3988 103.64 27.9379 101.844 27.9362ZM81.6122 26.482L81.5885 26.4989L81.3481 26.6581L81.6122 26.482ZM61.3519 76.3812C61.3553 77.7558 60.8559 79.0813 59.9502 80.1123C58.4587 81.8102 57.6394 83.9906 57.6411 86.2506L57.6428 87.5389L56.4832 87.5372C56.4679 87.5355 56.4527 87.5372 56.4391 87.5372L35.3307 87.5186L35.329 86.8397C35.3256 84.358 34.359 82.0235 32.6001 80.2646L29.4869 77.1514C28.417 76.0815 27.8245 74.6595 27.8245 73.1461L27.816 63.2072C27.8143 61.8004 28.3611 60.4817 29.3532 59.4897C29.9897 58.8531 30.7616 58.3995 31.6064 58.1574L31.6098 63.7642C31.6098 64.614 32.3005 65.3047 33.1537 65.3047C33.5786 65.303 33.9629 65.132 34.2422 64.8527C34.5215 64.5734 34.6942 64.1874 34.6942 63.7608L34.6874 57.0638L48.2998 70.6762C50.3533 72.7296 53.6916 72.7296 55.7417 70.6796C56.3206 70.1006 56.7354 69.4218 56.9859 68.6972C58.2895 69.5572 59.8909 69.7773 61.3451 69.3591L61.3519 76.3812ZM63.3291 43.6918C64.179 44.5416 64.1807 45.9247 63.3325 46.7728C62.4844 47.6209 61.103 47.6175 60.2532 46.7677L48.0916 34.6061C47.4889 34.0034 46.5121 34.0051 45.9112 34.6061C45.3085 35.2088 45.3085 36.1839 45.9112 36.7865L64.0503 54.9257C64.9018 55.7772 64.9018 57.1586 64.0537 58.0067C63.2919 58.7685 62.1035 58.843 61.2503 58.2369L42.842 39.8286C42.2393 39.226 41.2642 39.226 40.6616 39.8286C40.4686 40.0216 40.3365 40.2552 40.2688 40.5024C40.1063 41.0306 40.235 41.6265 40.6531 42.0446L58.7922 60.1837C58.9311 60.3226 59.075 60.4495 59.2222 60.5697L61.4196 62.7671C62.2711 63.6186 62.2745 65 61.4264 65.8481C60.5782 66.6962 59.1951 66.6945 58.3436 65.843L37.5738 45.0731C36.9711 44.4705 35.9943 44.4688 35.3916 45.0715C34.789 45.6741 34.7907 46.6509 35.3933 47.2536L53.5579 65.4181C54.4077 66.2679 54.4094 67.651 53.5613 68.4991C52.7131 69.3473 51.3317 69.3439 50.4819 68.4941L30.1996 48.2117C29.5969 47.6091 28.6201 47.6108 28.0192 48.2117C27.4165 48.8144 27.4165 49.7895 28.0192 50.3922L31.7706 54.1436C31.7096 54.2655 31.6605 54.3958 31.6335 54.5312C29.6934 55.4115 27.3234 55.056 25.727 53.4596L18.6931 46.4258C17.6232 45.3559 17.0324 43.9322 17.0307 42.4204L17.0273 38.0189C17.0257 35.5355 16.0556 33.201 14.2984 31.4438L13.821 30.9664L16.0133 28.7742C16.616 28.1715 16.6143 27.1947 16.0133 26.5937C15.4107 25.9911 14.4356 25.9911 13.8329 26.5937L9.29261 31.134C9.2232 31.2034 9.10978 31.2017 9.04206 31.134L1.78809 23.8801C1.72038 23.8123 1.72038 23.7006 1.78979 23.6312L22.1551 3.26593C22.2245 3.19652 22.3362 3.19652 22.4039 3.26423L29.6579 10.5182C29.7273 10.5876 29.7273 10.6993 29.6579 10.7687L18.9521 21.4745C18.3495 22.0771 18.3495 23.0522 18.9521 23.6549C19.5531 24.2559 20.5299 24.2576 21.1326 23.6549L29.5834 15.2041L30.4959 16.1165C32.0956 17.7163 34.2185 18.6779 36.4734 18.8268C37.8463 18.9165 39.138 19.5006 40.1131 20.4757L63.3291 43.6918ZM102.018 31.1983L102.043 60.0297C102.043 60.0771 102.027 60.1177 101.993 60.1516C101.959 60.1854 101.918 60.2024 101.871 60.2024L91.6238 60.1939C91.5257 60.1939 91.4461 60.1143 91.4444 60.0145L91.4444 58.3656L91.4427 58.3639L91.4292 41.6281L91.4207 31.1848C91.419 31.0883 91.4969 31.0104 91.5934 31.0121L101.84 31.0206C101.939 31.0206 102.018 31.1002 102.018 31.1983Z" fill="#002267"/>
<path d="M40.2122 18.1133C39.6365 18.1133 39.1675 18.5823 39.1675 19.1595C39.1675 19.7367 39.6365 20.2058 40.2122 20.2058C40.7879 20.2058 41.2569 19.7367 41.2569 19.1595C41.2569 18.5823 40.7879 18.1133 40.2122 18.1133Z" fill="#002267"/>
<path d="M74.4244 62.8242C73.8487 62.8242 73.3796 63.2933 73.3796 63.8705C73.3796 64.4461 73.8487 64.9167 74.4244 64.9167C75 64.9167 75.4691 64.4461 75.4691 63.8705C75.4691 63.2933 75 62.8242 74.4244 62.8242Z" fill="#002267"/>
<path d="M30.1658 72.8294C30.1658 72.2538 29.6983 71.7832 29.1226 71.7832C28.5454 71.7832 28.0779 72.2538 28.0779 72.8294C28.0779 73.4066 28.5454 73.8757 29.1226 73.8757C29.6983 73.8757 30.1658 73.4066 30.1658 72.8294Z" fill="#002267"/>
</g>
<defs>
<clipPath id="clip0_591_947">
<rect width="100" height="98.6842" fill="white"/>
</clipPath>
</defs>
</svg>
