<svg width="100" height="106" viewBox="0 0 100 106" fill="none" xmlns="http://www.w3.org/2000/svg">
<g clip-path="url(#clip0_591_896)">
<path d="M60.5594 57.4718C60.7205 57.3424 60.8726 57.204 61.0156 57.0542C61.1585 56.9067 61.2924 56.7501 61.4173 56.5845C61.5421 56.4188 61.6533 56.2463 61.7554 56.067C61.8598 55.8877 61.9483 55.7016 62.0277 55.511C62.1072 55.3204 62.173 55.1252 62.2274 54.9255C62.2819 54.7258 62.325 54.5238 62.3545 54.3196C62.3818 54.1153 62.3999 53.9088 62.4022 53.7023C62.4045 53.4958 62.3954 53.2892 62.3727 53.085C62.35 52.8785 62.3137 52.6765 62.266 52.4745C62.2184 52.2748 62.1571 52.0774 62.0845 51.8845C62.0118 51.6893 61.9279 51.5032 61.8303 51.3194C61.7327 51.1378 61.626 50.9608 61.508 50.7929C61.3878 50.6227 61.2607 50.4615 61.12 50.3095C60.9815 50.1552 60.834 50.0122 60.6774 49.8783C60.5186 49.7444 60.3552 49.6196 60.1827 49.5061C60.0102 49.3926 59.8309 49.2905 59.6448 49.1997L62.3523 39.1144C62.4203 38.8466 62.4226 38.5766 62.3591 38.3065C62.2933 38.0364 62.1707 37.7959 61.9869 37.5871C61.8031 37.3783 61.5784 37.224 61.3174 37.1264C61.0541 37.0288 60.7864 36.9993 60.5095 37.0379L49.1124 38.6673L37.7176 37.0379C37.4408 36.9993 37.1707 37.0288 36.9075 37.1264C36.6465 37.224 36.4218 37.3783 36.238 37.5871C36.0564 37.7959 35.9316 38.0364 35.8681 38.3065C35.8022 38.5766 35.8045 38.8466 35.8726 39.1144L38.58 49.1997C38.3962 49.2905 38.2169 49.3926 38.0444 49.5061C37.8697 49.6196 37.7063 49.7444 37.5497 49.8783C37.3908 50.0122 37.2433 50.1552 37.1049 50.3095C36.9665 50.4615 36.8371 50.6227 36.7191 50.7929C36.5988 50.9608 36.4921 51.1378 36.3946 51.3194C36.2992 51.5032 36.213 51.6893 36.1404 51.8845C36.0678 52.0774 36.0065 52.2748 35.9588 52.4745C35.9112 52.6765 35.8749 52.8785 35.8522 53.085C35.8295 53.2892 35.8204 53.4958 35.8227 53.7023C35.8272 53.9088 35.8431 54.1153 35.8726 54.3196C35.8998 54.5238 35.9429 54.7258 35.9974 54.9255C36.0519 55.1252 36.1177 55.3204 36.1971 55.511C36.2766 55.7016 36.3673 55.8877 36.4695 56.067C36.5716 56.2463 36.685 56.4188 36.8076 56.5845C36.9324 56.7501 37.0663 56.9067 37.2093 57.0542C37.3545 57.204 37.5066 57.3424 37.6677 57.4718C30.9888 63.8512 25.8553 74.9146 25.8553 83.5362V90.181C25.8553 99.1861 32.6999 106.793 40.8063 106.793H57.4185C65.5249 106.793 72.3695 99.1861 72.3695 90.181V83.5362C72.3695 74.9146 67.2361 63.8512 60.5594 57.4718ZM48.8809 41.9898C49.0353 42.0057 49.1896 42.0057 49.3462 41.9898L58.4829 40.678L56.3383 48.6505H41.8866L39.7442 40.678L48.8809 41.9898ZM40.8063 51.973H57.4185C57.6387 51.973 57.852 52.0161 58.054 52.1001C58.2582 52.184 58.4375 52.3043 58.5941 52.4609C58.7484 52.6152 58.8687 52.7945 58.9527 52.9988C59.0389 53.203 59.0797 53.4141 59.0797 53.6342C59.0797 53.8543 59.0389 54.0677 58.9527 54.2696C58.8687 54.4739 58.7484 54.6532 58.5941 54.8098C58.4375 54.9641 58.2582 55.0844 58.054 55.1683C57.852 55.2546 57.6387 55.2954 57.4185 55.2954H40.8063C40.5862 55.2954 40.3751 55.2546 40.1709 55.1683C39.9666 55.0844 39.7874 54.9641 39.633 54.8098C39.4764 54.6532 39.3562 54.4739 39.2722 54.2696C39.1882 54.0677 39.1451 53.8543 39.1451 53.6342C39.1451 53.4141 39.1882 53.203 39.2722 52.9988C39.3562 52.7945 39.4764 52.6152 39.633 52.4609C39.7874 52.3043 39.9666 52.184 40.1709 52.1001C40.3751 52.0161 40.5862 51.973 40.8063 51.973ZM69.0471 90.181C69.0471 97.2571 63.6141 103.471 57.4185 103.471H40.8063C34.6108 103.471 29.1778 97.2571 29.1778 90.181V83.5362C29.1778 75.2301 34.7424 63.9851 41.4055 58.6179H56.8217C63.4824 63.9851 69.0471 75.2301 69.0471 83.5362V90.181Z" fill="#002267"/>
<path d="M50.7738 78.5497H47.4514C47.1246 78.5497 46.8 78.5179 46.48 78.4544C46.1578 78.3908 45.8469 78.2955 45.545 78.1707C45.2432 78.0459 44.955 77.8916 44.6827 77.71C44.4103 77.5285 44.1584 77.3219 43.9269 77.0905C43.6955 76.859 43.4889 76.6071 43.3074 76.3347C43.1258 76.0624 42.9715 75.7765 42.8467 75.4746C42.7219 75.1705 42.6266 74.8596 42.563 74.5396C42.4995 74.2174 42.4677 73.8928 42.4677 73.566C42.4677 73.2392 42.4995 72.9147 42.563 72.5947C42.6266 72.2725 42.7219 71.9616 42.8467 71.6597C42.9715 71.3579 43.1258 71.0697 43.3074 70.7973C43.4889 70.525 43.6955 70.2731 43.9269 70.0416C44.1584 69.8101 44.4103 69.6036 44.6827 69.4221C44.955 69.2405 45.2432 69.0862 45.545 68.9614C45.8469 68.8366 46.1578 68.7412 46.48 68.6777C46.8 68.6142 47.1246 68.5824 47.4514 68.5824H57.4187V65.2599H50.7738V61.9375H47.4514V65.2599C46.9067 65.2599 46.3666 65.3144 45.831 65.4188C45.2954 65.5255 44.778 65.6843 44.2742 65.8931C43.7681 66.1019 43.2915 66.3561 42.8376 66.6602C42.3837 66.962 41.9639 67.307 41.5781 67.6928C41.1923 68.0786 40.8473 68.4984 40.5455 68.9523C40.2414 69.4062 39.9872 69.8828 39.7784 70.3888C39.5696 70.8927 39.4108 71.4101 39.3041 71.9457C39.1997 72.4813 39.1453 73.0214 39.1453 73.566C39.1453 74.1107 39.1997 74.6508 39.3041 75.1864C39.4108 75.722 39.5696 76.2417 39.7784 76.7455C39.9872 77.2493 40.2414 77.7282 40.5455 78.1821C40.8473 78.6337 41.1923 79.0535 41.5781 79.4393C41.9639 79.8251 42.3837 80.1701 42.8376 80.4719C43.2915 80.776 43.7681 81.0325 44.2742 81.2412C44.778 81.45 45.2954 81.6066 45.831 81.7133C46.3666 81.8199 46.9067 81.8721 47.4514 81.8721H50.7738C51.1006 81.8721 51.4251 81.9039 51.7474 81.9675C52.0674 82.031 52.3783 82.1263 52.6824 82.2511C52.9842 82.376 53.2702 82.5303 53.5425 82.7118C53.8148 82.8934 54.0667 83.0999 54.2982 83.3314C54.5297 83.5629 54.7362 83.8148 54.9178 84.0871C55.0993 84.3594 55.2537 84.6476 55.3785 84.9495C55.5033 85.2513 55.5986 85.5622 55.6621 85.8845C55.7257 86.2045 55.7575 86.529 55.7575 86.8558C55.7575 87.1826 55.7257 87.5071 55.6621 87.8294C55.5986 88.1494 55.5033 88.4603 55.3785 88.7644C55.2537 89.0662 55.0993 89.3522 54.9178 89.6245C54.7362 89.8968 54.5297 90.1487 54.2982 90.3802C54.0667 90.6117 53.8148 90.8182 53.5425 90.9998C53.2702 91.1813 52.9842 91.3356 52.6824 91.4605C52.3783 91.5853 52.0674 91.6806 51.7474 91.7441C51.4251 91.8077 51.1006 91.8395 50.7738 91.8395H40.8065V95.1619H47.4514V98.4843H50.7738V95.1619C51.3185 95.1619 51.8586 95.1097 52.3942 95.003C52.9298 94.8964 53.4495 94.7375 53.9533 94.531C54.4571 94.3222 54.9359 94.0658 55.3898 93.7617C55.8414 93.4598 56.2613 93.1149 56.6471 92.7291C57.0329 92.3433 57.3778 91.9234 57.6797 91.4718C57.9838 91.0179 58.2402 90.5391 58.449 90.0353C58.6555 89.5315 58.8144 89.0118 58.921 88.4762C59.0277 87.9406 59.0799 87.4005 59.0799 86.8558C59.0799 86.3111 59.0277 85.771 58.921 85.2354C58.8144 84.6998 58.6555 84.1824 58.449 83.6786C58.2402 83.1725 57.9838 82.6959 57.6797 82.2421C57.3778 81.7882 57.0329 81.3683 56.6471 80.9825C56.2613 80.5967 55.8414 80.2518 55.3898 79.9499C54.9359 79.6458 54.4571 79.3917 53.9533 79.1829C53.4495 78.9741 52.9298 78.8152 52.3942 78.7086C51.8586 78.6042 51.3185 78.5497 50.7738 78.5497Z" fill="#002267"/>
<path d="M39.1452 20.4109H42.4676V32.0394C42.4676 32.2595 42.5107 32.4729 42.5947 32.6748C42.6787 32.8791 42.7989 33.0584 42.9555 33.215C43.1098 33.3693 43.2891 33.4896 43.4934 33.5735C43.6976 33.6598 43.9087 33.7006 44.1288 33.7006H54.0961C54.3163 33.7006 54.5296 33.6598 54.7316 33.5735C54.9358 33.4896 55.1151 33.3693 55.2717 33.215C55.426 33.0584 55.5463 32.8791 55.6303 32.6748C55.7165 32.4729 55.7574 32.2595 55.7574 32.0394V20.4109H59.0798C59.4157 20.4109 59.7243 20.3178 60.0035 20.1317C60.2826 19.9434 60.4868 19.696 60.6139 19.3851C60.7433 19.0764 60.7751 18.7564 60.7093 18.4251C60.6434 18.096 60.4914 17.8124 60.2554 17.5763L50.288 7.60902C50.1315 7.45243 49.9522 7.33215 49.7479 7.24818C49.5459 7.16421 49.3326 7.12109 49.1125 7.12109C48.8923 7.12109 48.6813 7.16421 48.477 7.24818C48.2728 7.33215 48.0935 7.45243 47.9392 7.60902L37.9719 17.5763C37.7336 17.8124 37.5815 18.096 37.5157 18.4251C37.4499 18.7564 37.4817 19.0764 37.611 19.3851C37.7404 19.696 37.9424 19.9434 38.2238 20.1317C38.5029 20.3178 38.8093 20.4109 39.1452 20.4109ZM49.1125 11.1312L55.0697 17.0884H54.0961C53.876 17.0884 53.665 17.1315 53.4607 17.2155C53.2565 17.2995 53.0772 17.4198 52.9228 17.5763C52.7663 17.7307 52.646 17.9099 52.562 18.1142C52.478 18.3184 52.4349 18.5295 52.4349 18.7496V30.3782H45.79V18.7496C45.79 18.5295 45.7492 18.3184 45.663 18.1142C45.579 17.9099 45.4587 17.7307 45.3044 17.5763C45.1478 17.4198 44.9685 17.2995 44.7643 17.2155C44.5623 17.1315 44.349 17.0884 44.1288 17.0884H43.1552L49.1125 11.1312Z" fill="#002267"/>
<path d="M35.3735 33.8157L27.1514 25.5935L29.4934 23.2515C29.7317 23.0155 29.8861 22.7318 29.9519 22.4027C30.02 22.0736 29.9882 21.7537 29.8611 21.4427C29.734 21.1318 29.532 20.8822 29.2529 20.6938C28.9737 20.5055 28.6674 20.4124 28.3315 20.4102H14.227C14.0069 20.4102 13.7958 20.4533 13.5916 20.5372C13.3873 20.6212 13.208 20.7415 13.0537 20.8981C12.8971 21.0524 12.7769 21.2317 12.6929 21.4359C12.6089 21.6402 12.5658 21.8512 12.5658 22.0714V36.1759C12.5681 36.5117 12.6611 36.8181 12.8495 37.0972C13.0378 37.3764 13.2875 37.5784 13.5984 37.7055C13.9093 37.8325 14.2293 37.8643 14.5584 37.7962C14.8874 37.7304 15.1711 37.5761 15.4071 37.3378L17.7492 34.9958L25.9713 43.2202C26.3004 43.5379 26.693 43.699 27.1514 43.7013C27.6076 43.6967 28.0024 43.5356 28.3315 43.2202L35.3735 36.1759C35.6981 35.8491 35.8569 35.4542 35.8569 34.9958C35.8615 34.5351 35.7003 34.1425 35.3735 33.8157ZM27.1514 39.698L18.9293 31.4736C18.6047 31.1423 18.2121 30.9766 17.7492 30.9766C17.2885 30.9789 16.8936 31.1468 16.5691 31.4736L15.8882 32.1544V23.7326H24.3101L23.6292 24.4134C23.3025 24.7402 23.1368 25.1328 23.1322 25.5935C23.1345 26.0565 23.3002 26.4491 23.6292 26.7736L31.8537 34.9958L27.1514 39.698Z" fill="#002267"/>
<path d="M25.8554 51.9745C25.8554 51.7544 25.8146 51.5433 25.7283 51.3391C25.6443 51.1348 25.5241 50.9556 25.3697 50.8012C25.2132 50.6446 25.0339 50.5244 24.8296 50.4404C24.6276 50.3564 24.4143 50.3133 24.1942 50.3133H12.5656V46.9909C12.5656 46.655 12.4726 46.3486 12.2865 46.0695C12.0981 45.7881 11.8508 45.5861 11.5399 45.4567C11.2289 45.3274 10.9112 45.2956 10.5799 45.3614C10.2508 45.4272 9.96715 45.5793 9.73113 45.8176L-0.236194 55.7849C-0.392785 55.9392 -0.513064 56.1185 -0.597033 56.3227C-0.681002 56.527 -0.724121 56.738 -0.724121 56.9582C-0.724121 57.1783 -0.681002 57.3916 -0.597033 57.5936C-0.513064 57.7979 -0.392785 57.9772 -0.236194 58.1337L9.73113 68.1011C10.0557 68.4256 10.446 68.5867 10.9044 68.5867C11.1246 68.5867 11.3379 68.5459 11.5399 68.4619C11.8508 68.3325 12.1004 68.1283 12.2865 67.8492C12.4726 67.57 12.5656 67.2614 12.5656 66.9255V63.6031H24.1942C24.4143 63.6031 24.6276 63.5622 24.8296 63.476C25.0339 63.392 25.2132 63.2717 25.3697 63.1174C25.5241 62.9608 25.6443 62.7815 25.7283 62.5773C25.8146 62.3753 25.8554 62.162 25.8554 61.9418V51.9745ZM22.533 60.2806H10.9044C10.6843 60.2806 10.4732 60.3237 10.269 60.4077C10.0647 60.4917 9.88545 60.612 9.73113 60.7685C9.57454 60.9229 9.45426 61.1022 9.37029 61.3064C9.28632 61.5107 9.2432 61.7217 9.2432 61.9418V62.9154L3.28596 56.9582L9.2432 51.0009V51.9745C9.2432 52.1947 9.28632 52.408 9.37029 52.61C9.45426 52.8142 9.57454 52.9935 9.73113 53.1501C9.88545 53.3044 10.0647 53.4247 10.269 53.5087C10.4732 53.5949 10.6843 53.6357 10.9044 53.6357H22.533V60.2806Z" fill="#002267"/>
<path d="M69.9028 43.2156C70.0594 43.3722 70.2387 43.4925 70.4429 43.5765C70.6449 43.6604 70.8582 43.7013 71.0783 43.7013C71.2985 43.7013 71.5095 43.6604 71.7138 43.5765C71.9158 43.4925 72.0973 43.3722 72.2516 43.2156L80.476 34.9935L82.8249 37.3423C83.0609 37.5784 83.3446 37.7304 83.6737 37.7962C84.005 37.862 84.3227 37.8303 84.6336 37.7009C84.9445 37.5738 85.1919 37.3696 85.3803 37.0904C85.5664 36.8113 85.6594 36.5027 85.6594 36.1668V22.0714C85.6594 21.8512 85.6186 21.6402 85.5323 21.4359C85.4484 21.2317 85.3281 21.0524 85.1738 20.8981C85.0172 20.7415 84.8379 20.6212 84.6336 20.5372C84.4317 20.4533 84.2183 20.4102 83.9982 20.4102H69.9028C69.5669 20.4102 69.2605 20.5032 68.9814 20.6916C68.7 20.8777 68.498 21.125 68.3686 21.4359C68.2393 21.7468 68.2075 22.0668 68.2733 22.3959C68.3391 22.725 68.4912 23.0086 68.7295 23.2469L71.0783 25.5958L62.8539 33.8179C62.6996 33.9745 62.5793 34.1538 62.4954 34.3581C62.4091 34.56 62.3683 34.7734 62.3683 34.9935C62.3683 35.2136 62.4091 35.4247 62.4954 35.6289C62.5793 35.8309 62.6996 36.0125 62.8539 36.1668L69.9028 43.2156ZM74.6005 26.7691C74.7571 26.6148 74.8774 26.4332 74.9613 26.2312C75.0453 26.027 75.0884 25.8159 75.0884 25.5958C75.0884 25.3757 75.0453 25.1623 74.9613 24.9604C74.8774 24.7561 74.7571 24.5768 74.6005 24.4202L73.9129 23.7326H82.337V32.1567L81.6493 31.4691C81.4927 31.3125 81.3135 31.1945 81.1115 31.1082C80.9072 31.0243 80.6962 30.9834 80.476 30.9834C80.2559 30.9834 80.0426 31.0243 79.8383 31.1082C79.6364 31.1945 79.4571 31.3125 79.3005 31.4691L71.0783 39.6912L66.3784 34.9935L74.6005 26.7691Z" fill="#002267"/>
<path d="M98.4636 55.7849L88.4963 45.8176C88.258 45.5793 87.9743 45.4272 87.6453 45.3614C87.3162 45.2956 86.9962 45.3274 86.6853 45.4567C86.3744 45.5861 86.127 45.7881 85.9409 46.0695C85.7526 46.3486 85.6595 46.655 85.6595 46.9909V50.3133H74.031C73.8108 50.3133 73.5998 50.3564 73.3955 50.4404C73.1913 50.5244 73.012 50.6446 72.8577 50.8012C72.7011 50.9556 72.5808 51.1348 72.4968 51.3391C72.4129 51.5433 72.3698 51.7544 72.3698 51.9745V61.9418C72.3698 62.162 72.4129 62.3753 72.4968 62.5773C72.5808 62.7815 72.7011 62.9608 72.8577 63.1174C73.012 63.2717 73.1913 63.392 73.3955 63.476C73.5998 63.5622 73.8108 63.6031 74.031 63.6031H85.6595V66.9255C85.6595 67.2614 85.7526 67.57 85.9387 67.8492C86.127 68.1283 86.3744 68.3325 86.6853 68.4619C86.8873 68.5459 87.1006 68.5867 87.3207 68.5867C87.7792 68.5867 88.1718 68.4256 88.4963 68.1011L98.4636 58.1337C98.6179 57.9772 98.7382 57.7979 98.8222 57.5936C98.9062 57.3916 98.9493 57.1783 98.9493 56.9582C98.9493 56.738 98.9062 56.527 98.8222 56.3227C98.7382 56.1185 98.6179 55.9392 98.4636 55.7849ZM88.982 62.9154V61.9418C88.982 61.7217 88.9411 61.5107 88.8549 61.3064C88.7709 61.1022 88.6506 60.9229 88.4963 60.7685C88.3397 60.612 88.1604 60.4917 87.9562 60.4077C87.7542 60.3237 87.5409 60.2806 87.3207 60.2806H75.6922V53.6357H87.3207C87.5409 53.6357 87.7542 53.5949 87.9562 53.5087C88.1604 53.4247 88.3397 53.3044 88.4963 53.1501C88.6506 52.9935 88.7709 52.8142 88.8549 52.61C88.9411 52.408 88.982 52.1947 88.982 51.9745V51.0009L94.9392 56.9582L88.982 62.9154Z" fill="#002267"/>
</g>
<defs>
<clipPath id="clip0_591_896">
<rect width="100" height="105.882" fill="white"/>
</clipPath>
</defs>
</svg>
