<svg width="84" height="83" viewBox="0 0 84 83" fill="none" xmlns="http://www.w3.org/2000/svg">
<path d="M14.5021 14.2169L18.4766 10.1005L10.9533 1.86752C10.9533 1.86752 32.6715 -2.67482 29.2647 20.1788L74.6882 65.0343C74.6882 65.0343 80.2242 73.5511 79.2306 77.6676C75.1141 78.8032 65.8874 73.2672 65.8874 73.2672L20.8897 28.2698C-1.82202 32.6702 1.86865 10.6682 1.86865 10.6682L10.3856 17.9076L14.5021 14.2169Z" stroke="#002267" stroke-width="2.83896" stroke-miterlimit="10"/>
<path d="M74.5463 65.0352L65.8875 73.4101" stroke="#002267" stroke-width="2.83896" stroke-miterlimit="10"/>
<path d="M32.5295 40.0508C32.5295 40.0508 28.6969 64.7497 52.5442 60.0654" stroke="#002267" stroke-width="2.83896" stroke-miterlimit="10"/>
<path d="M40.7625 31.6747C40.7625 31.6747 64.184 26.8484 60.0675 50.8376" stroke="#002267" stroke-width="2.83896" stroke-miterlimit="10"/>
<path d="M22.3093 29.8301L18.1928 40.0503H11.947V53.1095H18.4767C18.4767 53.1095 19.1864 58.7874 21.5995 62.0522L18.0508 66.4526L27.5614 76.1051L32.3876 71.5628L40.9046 77.0987V81.4991H52.9702V75.3953C52.9702 75.3953 61.2032 71.7047 62.1968 69.8594" stroke="#002267" stroke-width="2.83896" stroke-miterlimit="10"/>
<path d="M30.4004 21.3121L39.3432 17.1957L39.0593 10.95L52.1185 10.2402L52.4024 16.7698C52.4024 16.7698 58.2223 17.1957 61.4872 19.4668L65.7456 15.6342L75.8239 24.577L71.4235 29.6871L77.3854 37.92L81.7858 37.6361L82.3536 49.7017L76.2498 49.9856C76.2498 49.9856 71.7074 59.2122 69.8621 60.3478" stroke="#002267" stroke-width="2.83896" stroke-miterlimit="10"/>
</svg>
