<svg width="104" height="120" viewBox="0 0 104 120" fill="none" xmlns="http://www.w3.org/2000/svg">
<path d="M10.7051 28.7715L30.074 77.0446" stroke="#01153D" stroke-width="3.22581" stroke-miterlimit="10" stroke-linecap="round"/>
<path d="M97.3754 93.7584H6.62459C4.06746 93.7584 2 91.5376 2 88.7909V86.9207C2 84.1739 4.06746 81.9531 6.62459 81.9531H97.3754C99.9325 81.9531 102 84.1739 102 86.9207V88.7324C102 91.5376 99.9325 93.7584 97.3754 93.7584Z" stroke="#01153D" stroke-width="3.22581" stroke-miterlimit="10" stroke-linecap="round"/>
<path d="M27.5713 57.5837L41.3362 48.6421L41.2818 40.168" stroke="#01153D" stroke-width="3.22581" stroke-miterlimit="10"/>
<path d="M36.9291 21.6409C36.9291 21.6409 40.3568 18.5435 42.1522 21.115C42.1522 22.1669 43.6212 20.8812 44.8182 19.5955C45.7975 18.602 47.2121 18.4266 48.3546 19.1864C52.3807 21.7578 61.8476 26.0825 67.6147 15.037C74.9052 1.06934 42.8051 -2.78784 40.0304 8.95902C39.8127 9.83565 39.051 10.3616 38.7246 11.2383C37.038 16.3812 33.4471 32.8618 45.5799 46.245C58.3655 54.836 70.8247 29.8813 66.3089 17.2578" stroke="#01153D" stroke-width="3.22581" stroke-miterlimit="10"/>
<path d="M33.7199 65.6476L33.5566 53.667" stroke="#01153D" stroke-width="3.22581" stroke-miterlimit="10" stroke-linecap="round"/>
<path d="M41.3359 48.6416L51.4012 58.2261L62.8267 48.9338C62.8267 48.9338 83.2293 61.3235 83.2293 63.895C83.2293 66.4664 83.2293 73.4795 83.2293 73.4795" stroke="#01153D" stroke-width="3.22581" stroke-miterlimit="10"/>
<path d="M62.8267 48.876L62.5547 39.1162" stroke="#01153D" stroke-width="3.22581" stroke-miterlimit="10"/>
<path d="M51.4558 66.1151L51.4014 58.167" stroke="#01153D" stroke-width="3.22581" stroke-miterlimit="10" stroke-linecap="round"/>
<path d="M69.3018 66.1163L69.4106 52.9668" stroke="#01153D" stroke-width="3.22581" stroke-miterlimit="10" stroke-linecap="round"/>
<path d="M74.3076 81.9531V74.4141H96.6145V81.9531" stroke="#01153D" stroke-width="3.22581" stroke-miterlimit="10" stroke-linecap="round" stroke-linejoin="round"/>
<path d="M19.3018 64.3037V77.0441" stroke="#01153D" stroke-width="3.22581" stroke-miterlimit="10" stroke-linecap="round"/>
<path d="M12.8271 99.4277V118.129" stroke="#01153D" stroke-width="3.22581" stroke-miterlimit="10" stroke-linecap="round"/>
<path d="M90.3027 99.4277V118.129" stroke="#01153D" stroke-width="3.22581" stroke-miterlimit="10" stroke-linecap="round"/>
<path d="M58.2568 104.103V111.875" stroke="#01153D" stroke-width="3.22581" stroke-miterlimit="10" stroke-linecap="round"/>
<path d="M51.7285 104.045V111.818" stroke="#01153D" stroke-width="3.22581" stroke-miterlimit="10" stroke-linecap="round"/>
<path d="M45.417 104.045V111.818" stroke="#01153D" stroke-width="3.22581" stroke-miterlimit="10" stroke-linecap="round"/>
</svg>
