<svg width="59" height="83" viewBox="0 0 59 83" fill="none" xmlns="http://www.w3.org/2000/svg">
<path d="M15.4963 18.1934H2V81.5009H57V18.1934H44.3155" stroke="#002267" stroke-width="2.39852" stroke-miterlimit="10"/>
<path d="M14 11.3197V18.155H48.059V11.3197H38.1051C38.1051 11.3197 39.904 1.5 30.5498 1.5C20.5959 1.5 22.7546 11.5122 22.7546 11.5122L14 11.3197Z" stroke="#002267" stroke-width="2.39852" stroke-miterlimit="10"/>
<path d="M30.5499 10.8398C32.1395 10.8398 33.4281 9.80536 33.4281 8.52929C33.4281 7.25323 32.1395 6.21875 30.5499 6.21875C28.9603 6.21875 27.6716 7.25323 27.6716 8.52929C27.6716 9.80536 28.9603 10.8398 30.5499 10.8398Z" stroke="#002267" stroke-width="2.39852" stroke-miterlimit="10"/>
<path d="M21 28.6406H51" stroke="#002267" stroke-width="2.39852" stroke-miterlimit="10"/>
<path d="M21 45.457H51" stroke="#002267" stroke-width="2.39852" stroke-miterlimit="10"/>
<path d="M21 52.3809H51" stroke="#002267" stroke-width="2.39852" stroke-miterlimit="10"/>
<path d="M21 62.2734H51" stroke="#002267" stroke-width="2.39852" stroke-miterlimit="10"/>
<path d="M21 70.1855H51" stroke="#002267" stroke-width="2.39852" stroke-miterlimit="10"/>
<path d="M21 36.5547H51" stroke="#002267" stroke-width="2.39852" stroke-miterlimit="10"/>
<path d="M6.03699 32.8827L9.15507 35.2895L15.6311 28.9355" stroke="#002267" stroke-width="2.39852" stroke-miterlimit="10"/>
<path d="M6.99622 66.7733L10.1143 69.1801L16.4704 62.8262" stroke="#002267" stroke-width="2.39852" stroke-miterlimit="10"/>
<path d="M5.07751 49.828L8.1956 52.2348L14.6716 45.8809" stroke="#002267" stroke-width="2.39852" stroke-miterlimit="10"/>
</svg>
