<svg width="105" height="113" viewBox="0 0 105 113" fill="none" xmlns="http://www.w3.org/2000/svg">
<path d="M23.0703 57.6401V10.3594" stroke="#01153D" stroke-width="0.806453"/>
<path d="M23.0703 57.6415V22.9238" stroke="#01153D" stroke-width="3.22581" stroke-miterlimit="10"/>
<path d="M15.2216 27.2847C18.3249 22.9451 21.1999 16.8154 23.0691 11.5913C24.9358 16.8497 27.8072 22.9759 30.9083 27.2801L23.2199 24.2178L23.0707 24.1584L22.9215 24.2178L15.2216 27.2847Z" stroke="#01153D" stroke-width="0.806453"/>
<path d="M53.1088 30.9503C60.4063 30.9503 66.3221 24.4621 66.3221 16.4586C66.3221 8.45498 60.4063 1.9668 53.1088 1.9668C45.8113 1.9668 39.8955 8.45498 39.8955 16.4586C39.8955 24.4621 45.8113 30.9503 53.1088 30.9503Z" stroke="#01153D" stroke-width="3.22581" stroke-miterlimit="10"/>
<path d="M52.6103 8.95052V7.11221H53.7526V8.84626V9.23831L54.1445 9.24933C55.6748 9.29236 56.7969 9.55391 57.6282 9.84502L57.2433 10.5839C56.4915 10.3115 55.2582 9.95476 53.4904 9.95476C52.2296 9.95476 51.3094 10.2115 50.6916 10.6302C50.0653 11.0547 49.7601 11.6426 49.7601 12.2346C49.7601 12.5938 49.8511 12.9229 50.0469 13.2208C50.2387 13.5128 50.5172 13.7541 50.8608 13.9658C51.5373 14.3828 52.5499 14.7341 53.901 15.1241C55.5023 15.589 56.6526 16.0926 57.3977 16.6875C58.1223 17.2659 58.4581 17.924 58.4581 18.7507C58.4581 20.1624 57.0238 21.7476 53.873 22.1033L53.515 22.1437V22.504V24.3944H52.3252V22.5561V22.1529H51.9219C50.3561 22.1529 48.7699 21.8291 47.7201 21.3804L48.114 20.6245C49.2725 21.0952 50.7992 21.4476 52.4448 21.4476C53.6086 21.4476 54.6119 21.2177 55.3394 20.7931C56.0725 20.3653 56.5553 19.7155 56.5553 18.9071C56.5553 18.1399 56.1487 17.535 55.4831 17.0605C54.8307 16.5954 53.8967 16.2286 52.7423 15.912C51.1558 15.4705 49.9274 15.0152 49.1002 14.4551C48.2917 13.9076 47.9049 13.2895 47.9049 12.4953C47.9049 11.7351 48.2866 11.0375 49.0279 10.4778C49.7748 9.91394 50.876 9.50215 52.2511 9.35134L52.6103 9.31194V8.95052Z" stroke="#01153D" stroke-width="0.806453"/>
<path d="M33.0772 100.917L15.0527 72.248L3.00027 81.3628L21.0247 110.032L33.0772 100.917Z" stroke="#01153D" stroke-width="3.22581" stroke-miterlimit="10"/>
<path d="M18.0332 76.095L35.6193 63.949C36.9501 63.0107 38.5186 62.7501 40.0395 63.1671C49.0227 65.565 79.9172 74.5311 74.3562 82.976C67.8921 92.8283 52.0171 82.6111 52.0171 82.6111" stroke="#01153D" stroke-width="3.22581" stroke-miterlimit="10" stroke-linecap="round"/>
<path d="M31.1992 97.9874C31.1992 97.9874 34.6214 93.8172 36.6652 93.8172C38.7089 93.8172 68.13 102.888 68.13 102.888C68.13 102.888 107.152 80.785 102.637 71.9231C98.1213 63.0612 75.0218 80.5765 75.0218 80.5765" stroke="#01153D" stroke-width="3.22581" stroke-miterlimit="10"/>
<path d="M57.2928 68.5866V54.3555H47.4541V65.2504" stroke="#01153D" stroke-width="3.22581" stroke-miterlimit="10"/>
<path d="M72.7879 76.7725V43.4102H62.9492V70.8819" stroke="#01153D" stroke-width="3.22581" stroke-miterlimit="10"/>
<path d="M87.7117 72.4966V32.2012H77.873V78.5435" stroke="#01153D" stroke-width="3.22581" stroke-miterlimit="10"/>
<path d="M102.636 74.8438V21.5684H92.7969V70.5693" stroke="#01153D" stroke-width="3.22581" stroke-miterlimit="10"/>
</svg>
