<svg width="68" height="68" viewBox="0 0 68 68" fill="none" xmlns="http://www.w3.org/2000/svg">
<path d="M40.8846 20.6391V41.793C40.8878 44.8522 42.1045 47.7852 44.2677 49.9484C46.4309 52.1116 49.3639 53.3282 52.4231 53.3314C52.9331 53.3314 53.4223 53.1288 53.7829 52.7682C54.1435 52.4075 54.3462 51.9184 54.3462 51.4084C54.3462 50.8983 54.1435 50.4092 53.7829 50.0485C53.4223 49.6879 52.9331 49.4853 52.4231 49.4853C50.383 49.4853 48.4264 48.6748 46.9838 47.2323C45.5412 45.7897 44.7308 43.8331 44.7308 41.793V39.8699H59.1538C60.1739 39.8699 61.1522 39.4647 61.8735 38.7434C62.5948 38.0221 63 37.0438 63 36.0237V20.6391C63 19.6191 62.5948 18.6408 61.8735 17.9195C61.1522 17.1982 60.1739 16.793 59.1538 16.793H44.7308C43.7107 16.793 42.7324 17.1982 42.0111 17.9195C41.2898 18.6408 40.8846 19.6191 40.8846 20.6391ZM16.8462 16.793H31.2692C32.2893 16.793 33.2676 17.1982 33.9889 17.9195C34.7102 18.6408 35.1154 19.6191 35.1154 20.6391V36.0237C35.1154 37.0438 34.7102 38.0221 33.9889 38.7434C33.2676 39.4647 32.2893 39.8699 31.2692 39.8699H16.8462V41.793C16.8462 43.8331 17.6566 45.7897 19.0992 47.2323C20.5418 48.6748 22.4983 49.4853 24.5385 49.4853C25.0485 49.4853 25.5376 49.6879 25.8983 50.0485C26.2589 50.4092 26.4615 50.8983 26.4615 51.4084C26.4615 51.9184 26.2589 52.4075 25.8983 52.7682C25.5376 53.1288 25.0485 53.3314 24.5385 53.3314C21.4792 53.3282 18.5462 52.1116 16.3831 49.9484C14.2199 47.7852 13.0032 44.8522 13 41.793V20.6391C13 19.6191 13.4052 18.6408 14.1265 17.9195C14.8478 17.1982 15.8261 16.793 16.8462 16.793Z" fill="#FF5607"/>
</svg>
