<svg width="85" height="75" viewBox="0 0 85 75" fill="none" xmlns="http://www.w3.org/2000/svg">
<path d="M71.3309 66.0584L33.1278 27.8555L26.7739 34.2094L64.977 72.4124L71.3309 66.0584Z" stroke="#002267" stroke-width="2.24648" stroke-miterlimit="10"/>
<path d="M76.0666 2.22297L51.3656 26.9238L57.799 33.3572L82.4999 8.65632L76.0666 2.22297Z" stroke="#002267" stroke-width="2.24648" stroke-miterlimit="10"/>
<path d="M26.8743 34.249L19.0117 26.3863C18.0007 25.4877 16.4282 25.8247 15.9789 27.0603C14.8557 30.2053 12.8338 34.8106 10.812 34.3613L2.5 26.0493C2.5 26.0493 5.86972 22.2304 8.11621 21.8934C8.67783 21.7811 9.23947 21.4441 9.57644 20.8825C12.2722 16.3895 23.28 -0.795999 35.2987 3.24765C35.2987 3.24765 23.7293 15.154 24.2909 18.636L33.1645 28.0712" stroke="#002267" stroke-width="2.24648" stroke-miterlimit="10"/>
<path d="M54.5061 29.9805L44.7339 39.4157" stroke="#002267" stroke-width="2.24648" stroke-miterlimit="10"/>
<path d="M38.6684 46.043L23.6169 61.5436" stroke="#002267" stroke-width="2.24648" stroke-miterlimit="10"/>
<path d="M20.0226 57.9492L26.9867 64.9133L15.4173 72.7759L12.0476 69.5185L20.0226 57.9492Z" stroke="#002267" stroke-width="2.24648" stroke-miterlimit="10"/>
</svg>
