<svg width="83" height="83" viewBox="0 0 83 83" fill="none" xmlns="http://www.w3.org/2000/svg">
<path d="M81.5 5.37109H57.291V29.5799H81.5V5.37109Z" stroke="#002267" stroke-width="2.45776" stroke-miterlimit="10"/>
<path d="M25.7089 53.668H1.5V77.8768H25.7089V53.668Z" stroke="#002267" stroke-width="2.45776" stroke-miterlimit="10"/>
<path d="M66.016 39.043H72.652L72.1604 61.5314C72.1604 63.4976 71.7918 65.4638 70.9316 67.1842C69.8256 69.642 67.6136 72.2226 64.1727 72.3455C57.5368 72.4684 49.3033 72.3455 49.3033 72.3455V80.2103L31.6074 69.0275L49.4262 58.5821V66.2011L63.1896 65.9553C63.1896 65.9553 66.5076 66.0782 66.5076 61.5314C66.3847 57.1074 66.016 39.043 66.016 39.043Z" stroke="#002267" stroke-width="2.45776" stroke-miterlimit="10"/>
<path d="M17.3525 43.7126L10.7166 43.5897L11.5768 21.1013C11.6997 19.1351 12.0683 17.1688 12.8057 15.4484C13.9117 12.9907 16.2465 10.4101 19.6874 10.4101C26.3233 10.2872 34.5568 10.6558 34.5568 10.6558L34.6797 2.79102L52.2527 14.2195L34.3111 24.4192L34.4339 16.8002H20.6705C20.6705 16.8002 17.3525 16.6773 17.3525 21.1013C17.1067 25.6481 17.3525 43.7126 17.3525 43.7126Z" stroke="#002267" stroke-width="2.45776" stroke-miterlimit="10"/>
</svg>
