<svg width="104" height="88" viewBox="0 0 104 88" fill="none" xmlns="http://www.w3.org/2000/svg">
<path d="M19.0995 23.1647L15.1442 18.6963L8.47223 25.9869L12.2277 30.2201L8.47223 41.791H2V54.2555H7.79304L11.5086 64.7916L8.59209 71.5648L14.2253 77.9146L19.0995 74.3869L27.2097 77.9146L28.6081 85.6756H38.0767L39.1554 78.1498L47.6652 74.1988L52.779 78.7613L58.7718 71.7059L55.5757 65.5912L58.7718 55.8548L65.5637 53.6441V42.1673L58.4922 40.7562L55.4159 32.4308L59.0515 25.9869L52.779 18.6963L47.2257 22.8355L39.5949 18.6963L37.797 10.418H29.0475L27.6492 19.4018L19.0995 23.1647Z" stroke="#00AEEF" stroke-width="3.00752" stroke-miterlimit="10"/>
<path d="M33.4422 63.6626C40.6575 63.6626 46.5066 57.0502 46.5066 48.8933C46.5066 40.7365 40.6575 34.124 33.4422 34.124C26.227 34.124 20.3779 40.7365 20.3779 48.8933C20.3779 57.0502 26.227 63.6626 33.4422 63.6626Z" stroke="#00AEEF" stroke-width="3.00752" stroke-miterlimit="10"/>
<path d="M80.0662 6.13916L78.9476 2.32925L73.3543 4.3518L74.433 7.97357L69.399 13.3827L65.7634 11.3131L62.6471 18.4626L65.9232 20.25L65.4038 27.4465L62.0479 30.4097L63.6859 35.8189L67.3215 35.3485L71.0371 39.911L69.8784 44.8028L75.232 47.766L77.749 43.862L83.5021 44.2854L85.2999 48.5186L90.4537 46.3549L90.1741 41.8865L94.409 37.324L98.8037 38.2177L101.68 31.6797L98.0047 28.6224L98.3642 22.931L102 20.3911L100.282 14.2294L96.087 14.8408L92.8109 10.0432L93.8497 4.77512L88.8956 2L85.8593 6.65656L80.0662 6.13916Z" stroke="#00AEEF" stroke-width="3.00752" stroke-miterlimit="10"/>
<path d="M82.3656 34.7158C86.9212 34.3264 90.3552 29.81 90.0356 24.6281C89.7161 19.4461 85.7641 15.561 81.2085 15.9503C76.653 16.3396 73.219 20.8561 73.5385 26.038C73.858 31.22 77.8101 35.1051 82.3656 34.7158Z" stroke="#00AEEF" stroke-width="3.00752" stroke-miterlimit="10"/>
</svg>
