<svg width="101" height="101" viewBox="0 0 101 101" fill="none" xmlns="http://www.w3.org/2000/svg">
<g clip-path="url(#clip0_591_990)">
<path d="M87.723 37.1289H79.5263C79.346 37.1289 79.1715 37.165 79.0045 37.2333C78.8375 37.3035 78.6895 37.4021 78.5605 37.5293C78.4334 37.6583 78.3347 37.8063 78.2645 37.9732C78.1962 38.1402 78.1602 38.3148 78.1602 38.495V90.4076C78.1602 90.5897 78.1962 90.7643 78.2645 90.9313C78.3347 91.0982 78.4334 91.2462 78.5605 91.3734C78.6895 91.5024 78.8375 91.601 79.0045 91.6694C79.1715 91.7396 79.346 91.7737 79.5263 91.7737H87.723C87.9051 91.7737 88.0797 91.7396 88.2467 91.6694C88.4136 91.601 88.5616 91.5024 88.6888 91.3734C88.8178 91.2462 88.9165 91.0982 88.9848 90.9313C89.055 90.7643 89.0891 90.5897 89.0891 90.4076V38.495C89.0891 38.3148 89.055 38.1402 88.9848 37.9732C88.9165 37.8063 88.8178 37.6583 88.6888 37.5293C88.5616 37.4021 88.4136 37.3035 88.2467 37.2333C88.0797 37.165 87.9051 37.1289 87.723 37.1289ZM86.3569 89.0415H80.8924V39.8611H86.3569V89.0415Z" fill="#002267"/>
<path d="M74.0617 91.7686C74.2439 91.7686 74.4185 91.7344 74.5854 91.6642C74.7524 91.5959 74.9004 91.4973 75.0275 91.3682C75.1565 91.2411 75.2552 91.0931 75.3235 90.9261C75.3937 90.7592 75.4279 90.5846 75.4279 90.4025V49.4189C75.4279 49.2386 75.3937 49.064 75.3235 48.8971C75.2552 48.7301 75.1565 48.5821 75.0275 48.4531C74.9004 48.326 74.7524 48.2273 74.5854 48.1571C74.4185 48.0888 74.2439 48.0527 74.0617 48.0527H65.865C65.6848 48.0527 65.5102 48.0888 65.3432 48.1571C65.1763 48.2273 65.0283 48.326 64.8993 48.4531C64.7721 48.5821 64.6735 48.7301 64.6033 48.8971C64.535 49.064 64.4989 49.2386 64.4989 49.4189V90.4025C64.4989 90.5846 64.535 90.7592 64.6033 90.9261C64.6735 91.0931 64.7721 91.2411 64.8993 91.3682C65.0283 91.4973 65.1763 91.5959 65.3432 91.6642C65.5102 91.7344 65.6848 91.7686 65.865 91.7686H74.0617ZM67.2311 50.785H72.6956V89.0363H67.2311V50.785Z" fill="#002267"/>
<path d="M60.4005 91.7741C60.5826 91.7741 60.7572 91.7399 60.9242 91.6697C61.0911 91.6014 61.2391 91.5028 61.3663 91.3737C61.4953 91.2466 61.5939 91.0986 61.6623 90.9317C61.7325 90.7647 61.7666 90.5901 61.7666 90.408V58.9872C61.7666 58.807 61.7325 58.6324 61.6623 58.4654C61.5939 58.2985 61.4953 58.1505 61.3663 58.0214C61.2391 57.8943 61.0911 57.7957 60.9242 57.7255C60.7572 57.6571 60.5826 57.6211 60.4005 57.6211H52.2038C52.0235 57.6211 51.849 57.6571 51.682 57.7255C51.515 57.7957 51.367 57.8943 51.238 58.0214C51.1109 58.1505 51.0122 58.2985 50.942 58.4654C50.8737 58.6324 50.8376 58.807 50.8376 58.9872V90.408C50.8376 90.5901 50.8737 90.7647 50.942 90.9317C51.0122 91.0986 51.1109 91.2466 51.238 91.3737C51.367 91.5028 51.515 91.6014 51.682 91.6697C51.849 91.7399 52.0235 91.7741 52.2038 91.7741H60.4005ZM53.5699 60.3533H59.0344V89.0419H53.5699V60.3533Z" fill="#002267"/>
<path d="M46.7394 91.769C46.9215 91.769 47.0961 91.7348 47.263 91.6646C47.43 91.5963 47.578 91.4976 47.7051 91.3686C47.8341 91.2415 47.9328 91.0935 48.0011 90.9265C48.0713 90.7596 48.1055 90.585 48.1055 90.4028V69.911C48.1055 69.7308 48.0713 69.5562 48.0011 69.3893C47.9328 69.2223 47.8341 69.0743 47.7051 68.9453C47.578 68.8181 47.43 68.7195 47.263 68.6493C47.0961 68.581 46.9215 68.5449 46.7394 68.5449H38.5426C38.3624 68.5449 38.1878 68.581 38.0209 68.6493C37.8539 68.7195 37.7059 68.8181 37.5769 68.9453C37.4497 69.0743 37.3511 69.2223 37.2809 69.3893C37.2126 69.5562 37.1765 69.7308 37.1765 69.911V90.4028C37.1765 90.585 37.2126 90.7596 37.2809 90.9265C37.3511 91.0935 37.4497 91.2415 37.5769 91.3686C37.7059 91.4976 37.8539 91.5963 38.0209 91.6646C38.1878 91.7348 38.3624 91.769 38.5426 91.769H46.7394ZM39.9088 71.2772H45.3732V89.0367H39.9088V71.2772Z" fill="#002267"/>
<path d="M33.0781 91.7732C33.2603 91.7732 33.4348 91.7391 33.6018 91.6689C33.7688 91.6006 33.9167 91.5019 34.0439 91.3729C34.1729 91.2458 34.2716 91.0978 34.3399 90.9308C34.4101 90.7638 34.4442 90.5893 34.4442 90.4071V75.3798C34.4442 75.1995 34.4101 75.025 34.3399 74.858C34.2716 74.691 34.1729 74.543 34.0439 74.414C33.9167 74.2869 33.7688 74.1882 33.6018 74.118C33.4348 74.0497 33.2603 74.0137 33.0781 74.0137H24.8814C24.7011 74.0137 24.5266 74.0497 24.3596 74.118C24.1926 74.1882 24.0446 74.2869 23.9156 74.414C23.7885 74.543 23.6898 74.691 23.6196 74.858C23.5513 75.025 23.5153 75.1995 23.5153 75.3798V90.4071C23.5153 90.5893 23.5513 90.7638 23.6196 90.9308C23.6898 91.0978 23.7885 91.2458 23.9156 91.3729C24.0446 91.5019 24.1926 91.6006 24.3596 91.6689C24.5266 91.7391 24.7011 91.7732 24.8814 91.7732H33.0781ZM26.2475 76.7459H31.712V89.041H26.2475V76.7459Z" fill="#002267"/>
<path d="M19.4171 91.7688C19.5992 91.7688 19.7738 91.7347 19.9408 91.6644C20.1077 91.5961 20.2557 91.4975 20.3829 91.3685C20.5119 91.2413 20.6105 91.0933 20.6789 90.9264C20.7491 90.7594 20.7832 90.5848 20.7832 90.4027V82.206C20.7832 82.0257 20.7491 81.8512 20.6789 81.6842C20.6105 81.5172 20.5119 81.3692 20.3829 81.2402C20.2557 81.1131 20.1077 81.0144 19.9408 80.9442C19.7738 80.8759 19.5992 80.8398 19.4171 80.8398H11.2204C11.0401 80.8398 10.8656 80.8759 10.6986 80.9442C10.5316 81.0144 10.3836 81.1131 10.2546 81.2402C10.1275 81.3692 10.0288 81.5172 9.9586 81.6842C9.8903 81.8512 9.85425 82.0257 9.85425 82.206V90.4027C9.85425 90.5848 9.8903 90.7594 9.9586 90.9264C10.0288 91.0933 10.1275 91.2413 10.2546 91.3685C10.3836 91.4975 10.5316 91.5961 10.6986 91.6644C10.8656 91.7347 11.0401 91.7688 11.2204 91.7688H19.4171ZM12.5865 83.5721H18.051V89.0366H12.5865V83.5721Z" fill="#002267"/>
<path d="M41.2749 37.1246H44.0071C44.1893 37.1246 44.3638 37.0905 44.5308 37.0203C44.6978 36.952 44.8458 36.8533 44.9729 36.7243C45.1019 36.5972 45.2006 36.4492 45.2689 36.2822C45.3391 36.1152 45.3732 35.9407 45.3732 35.7585C45.3732 35.5783 45.3391 35.4037 45.2689 35.2367C45.2006 35.0698 45.1019 34.9218 44.9729 34.7927C44.8458 34.6656 44.6978 34.567 44.5308 34.4968C44.3638 34.4284 44.1893 34.3924 44.0071 34.3924H42.641V33.0263C42.641 32.846 42.6068 32.6715 42.5366 32.5045C42.4683 32.3375 42.3697 32.1895 42.2406 32.0605C42.1135 31.9334 41.9655 31.8347 41.7986 31.7645C41.6316 31.6962 41.457 31.6602 41.2749 31.6602C41.0946 31.6602 40.9201 31.6962 40.7531 31.7645C40.5861 31.8347 40.4381 31.9334 40.3091 32.0605C40.182 32.1895 40.0833 32.3375 40.0131 32.5045C39.9448 32.6715 39.9088 32.846 39.9088 33.0263V34.6277C39.683 34.7074 39.4667 34.8079 39.2579 34.9256C39.0492 35.0432 38.8519 35.1779 38.6679 35.3316C38.4819 35.4834 38.3112 35.6523 38.1575 35.8344C38.0019 36.0166 37.8634 36.212 37.7419 36.4188C37.6205 36.6256 37.518 36.8419 37.4346 37.0658C37.3511 37.2897 37.2885 37.5212 37.2448 37.7565C37.2012 37.9936 37.1803 38.2308 37.1784 38.4699C37.1784 38.7109 37.1974 38.948 37.2372 39.1852C37.279 39.4205 37.3397 39.652 37.4194 39.8777C37.501 40.1035 37.6015 40.3198 37.7211 40.5286C37.8406 40.7354 37.9753 40.9327 38.129 41.1167C38.2827 41.3008 38.4516 41.4697 38.6356 41.6233C38.8178 41.7789 39.0132 41.9155 39.22 42.037C39.4287 42.1565 39.645 42.259 39.8689 42.3406C40.0947 42.4221 40.3262 42.4848 40.5615 42.5265C40.7986 42.5682 41.0358 42.5891 41.2749 42.5891C41.457 42.5891 41.6316 42.6252 41.7986 42.6935C41.9655 42.7637 42.1135 42.8623 42.2406 42.9895C42.3697 43.1185 42.4683 43.2665 42.5366 43.4335C42.6068 43.6004 42.641 43.775 42.641 43.9552C42.641 44.1374 42.6068 44.3119 42.5366 44.4789C42.4683 44.6459 42.3697 44.7939 42.2406 44.921C42.1135 45.05 41.9655 45.1487 41.7986 45.217C41.6316 45.2872 41.457 45.3214 41.2749 45.3214H38.5426C38.3624 45.3214 38.1878 45.3574 38.0209 45.4257C37.8539 45.4959 37.7059 45.5946 37.5769 45.7217C37.4497 45.8507 37.3511 45.9987 37.2809 46.1657C37.2126 46.3327 37.1765 46.5072 37.1765 46.6875C37.1765 46.8696 37.2126 47.0442 37.2809 47.2112C37.3511 47.3781 37.4497 47.5261 37.5769 47.6532C37.7059 47.7823 37.8539 47.8809 38.0209 47.9492C38.1878 48.0194 38.3624 48.0536 38.5426 48.0536H39.9088V49.4197C39.9088 49.6019 39.9448 49.7764 40.0131 49.9434C40.0833 50.1104 40.182 50.2584 40.3091 50.3855C40.4381 50.5145 40.5861 50.6132 40.7531 50.6815C40.9201 50.7517 41.0946 50.7858 41.2749 50.7858C41.457 50.7858 41.6316 50.7517 41.7986 50.6815C41.9655 50.6132 42.1135 50.5145 42.2406 50.3855C42.3697 50.2584 42.4683 50.1104 42.5366 49.9434C42.6068 49.7764 42.641 49.6019 42.641 49.4197V47.8183C42.8668 47.7386 43.085 47.64 43.2937 47.5223C43.5024 47.4047 43.6997 47.2681 43.8838 47.1163C44.0678 46.9626 44.2386 46.7956 44.3942 46.6135C44.5498 46.4294 44.6883 46.2359 44.8097 46.0291C44.9311 45.8223 45.0336 45.606 45.1171 45.3821C45.1987 45.1563 45.2632 44.9267 45.3049 44.6895C45.3486 44.4543 45.3713 44.2171 45.3713 43.9761C45.3732 43.737 45.3543 43.4999 45.3125 43.2627C45.2727 43.0255 45.212 42.7959 45.1304 42.5701C45.0488 42.3444 44.9501 42.1281 44.8306 41.9193C44.711 41.7106 44.5744 41.5152 44.4207 41.3311C44.2671 41.1471 44.1001 40.9782 43.916 40.8226C43.732 40.669 43.5366 40.5304 43.3297 40.4109C43.1229 40.2895 42.9066 40.1889 42.6808 40.1073C42.4551 40.0238 42.2255 39.9631 41.9883 39.9195C41.753 39.8777 41.5158 39.8569 41.2749 39.8569C41.0946 39.8569 40.9201 39.8227 40.7531 39.7525C40.5861 39.6842 40.4381 39.5856 40.3091 39.4565C40.182 39.3294 40.0833 39.1814 40.0131 39.0144C39.9448 38.8475 39.9088 38.6729 39.9088 38.4908C39.9088 38.3105 39.9448 38.1359 40.0131 37.969C40.0833 37.802 40.182 37.654 40.3091 37.525C40.4381 37.3979 40.5861 37.2992 40.7531 37.229C40.9201 37.1607 41.0946 37.1246 41.2749 37.1246Z" fill="#002267"/>
<path d="M87.723 20.7344H79.5263C79.346 20.7344 79.1714 20.7704 79.0045 20.8387C78.8375 20.9089 78.6895 21.0076 78.5605 21.1347C78.4334 21.2637 78.3347 21.4117 78.2645 21.5787C78.1962 21.7457 78.1601 21.9202 78.1601 22.1005C78.1601 22.2826 78.1962 22.4572 78.2645 22.6242C78.3347 22.7911 78.4334 22.9391 78.5605 23.0663C78.6895 23.1953 78.8375 23.294 79.0045 23.3623C79.1714 23.4325 79.346 23.4666 79.5263 23.4666H84.4253L65.2996 42.5923H57.6114C57.6494 42.1426 57.6683 41.6872 57.6683 41.2262C57.6683 40.7101 57.6437 40.1959 57.5962 39.6836C57.5469 39.1694 57.4748 38.659 57.378 38.1524C57.2813 37.6458 57.1617 37.1449 57.0175 36.6497C56.8733 36.1545 56.7064 35.6668 56.5166 35.1887C56.325 34.7086 56.1144 34.2381 55.8791 33.7789C55.6457 33.3198 55.3896 32.872 55.1126 32.4375C54.8355 32.0011 54.5395 31.5799 54.2227 31.1738C53.9077 30.7659 53.5719 30.375 53.219 29.9974C52.866 29.6217 52.4961 29.265 52.109 28.9235C51.7219 28.582 51.3197 28.2613 50.9022 27.9577C50.4848 27.6542 50.0541 27.3733 49.6101 27.1096C49.1642 26.8478 48.7089 26.6068 48.2421 26.3886C47.7753 26.1685 47.2991 25.9731 46.8134 25.7985C46.3295 25.6239 45.8362 25.4722 45.3372 25.345C44.8363 25.2179 44.3316 25.1135 43.8231 25.0339C43.3127 24.9523 42.8004 24.8972 42.2862 24.865C41.772 24.8327 41.2559 24.8251 40.7417 24.8422C40.2256 24.8593 39.7114 24.901 39.201 24.9656C38.6887 25.032 38.1821 25.1211 37.6774 25.2331C37.1746 25.3469 36.6775 25.4835 36.188 25.6429C35.6966 25.8042 35.2165 25.9863 34.7422 26.1913C34.2697 26.3981 33.8068 26.6239 33.3552 26.8743C32.9036 27.1229 32.4653 27.3923 32.0384 27.6826C31.6134 27.9748 31.2017 28.2841 30.8051 28.6142C30.4085 28.9425 30.0272 29.2897 29.6629 29.6559C29.2986 30.0202 28.9532 30.4035 28.625 30.8C28.2967 31.1985 27.9894 31.6102 27.6991 32.039C27.4107 32.4659 27.1412 32.9061 26.8946 33.3577C26.646 33.8093 26.4202 34.2741 26.2172 34.7466C26.0142 35.2209 25.832 35.7029 25.6746 36.1943C25.5152 36.6838 25.3805 37.1828 25.2685 37.6856C25.1585 38.1885 25.0712 38.697 25.0067 39.2093C24.9441 39.7197 24.9042 40.2338 24.889 40.7499C24.8739 41.266 24.8833 41.7802 24.9175 42.2944C24.9498 42.8105 25.0086 43.3209 25.0902 43.8313C25.1717 44.3398 25.278 44.8445 25.407 45.3435C25.536 45.8425 25.6897 46.3358 25.8662 46.8197C26.0408 47.3054 26.24 47.7798 26.4601 48.2465C26.6821 48.7114 26.923 49.1668 27.1868 49.6107C27.4505 50.0528 27.7351 50.4835 28.0387 50.8991C28.3442 51.3165 28.6667 51.7168 29.0083 52.1039C29.3517 52.4891 29.7103 52.8572 30.0879 53.2101C30.4655 53.5611 30.8582 53.895 31.2662 54.21C31.6741 54.525 32.0972 54.821 32.5336 55.0961C32.97 55.3712 33.4178 55.6236 33.8789 55.8569C34.338 56.0903 34.8086 56.3009 35.2886 56.4888C35.7687 56.6766 36.2563 56.8417 36.7534 56.984C37.2486 57.1263 37.7495 57.2458 38.2561 57.3407L32.5127 63.0841H22.1492C21.7716 63.0841 21.451 63.2188 21.1834 63.4845L7.52223 77.1457C7.39511 77.2747 7.29644 77.4227 7.22624 77.5896C7.15793 77.7566 7.12378 77.9312 7.12378 78.1114C7.12378 78.2917 7.15793 78.4662 7.22814 78.6332C7.29644 78.8021 7.39511 78.9482 7.52413 79.0772C7.65125 79.2043 7.79925 79.303 7.96622 79.3732C8.13319 79.4415 8.30775 79.4775 8.488 79.4775C8.67015 79.4775 8.84471 79.4434 9.01168 79.3732C9.17865 79.3049 9.32665 79.2062 9.45377 79.0772L22.7146 65.8163H33.0782C33.4557 65.8163 33.7783 65.6835 34.0439 65.416L41.8517 57.6082C42.7302 57.576 43.5992 57.4754 44.4606 57.3028C45.322 57.132 46.1626 56.8929 46.986 56.5874C47.8076 56.2801 48.6007 55.9101 49.3654 55.4775C50.1281 55.043 50.8529 54.5515 51.536 54.0013C52.2209 53.453 52.8585 52.8515 53.4466 52.1988C54.0348 51.548 54.5661 50.8535 55.0442 50.1154C55.5205 49.3793 55.936 48.6089 56.2889 47.8044C56.6418 47.0018 56.9303 46.1746 57.1503 45.3245H65.8651C66.2426 45.3245 66.5652 45.1917 66.8308 44.9242L86.3569 25.4001V30.2972C86.3569 30.4794 86.3929 30.6539 86.4612 30.8209C86.5314 30.9879 86.6301 31.1359 86.7572 31.263C86.8862 31.392 87.0342 31.4907 87.2012 31.559C87.3682 31.6292 87.5427 31.6633 87.723 31.6633C87.9051 31.6633 88.0797 31.6292 88.2467 31.559C88.4136 31.4907 88.5616 31.392 88.6888 31.263C88.8178 31.1359 88.9164 30.9879 88.9847 30.8209C89.055 30.6539 89.0891 30.4794 89.0891 30.2972V22.1005C89.0891 21.9202 89.055 21.7457 88.9847 21.5787C88.9164 21.4117 88.8178 21.2637 88.6888 21.1347C88.5616 21.0076 88.4136 20.9089 88.2467 20.8387C88.0797 20.7704 87.9051 20.7344 87.723 20.7344ZM41.2749 54.8874C40.8271 54.8874 40.3812 54.8665 39.9372 54.8229C39.4913 54.7792 39.0493 54.7128 38.611 54.6255C38.1708 54.5383 37.7382 54.4301 37.3093 54.2992C36.8824 54.1702 36.4612 54.0184 36.0476 53.8476C35.634 53.6768 35.2298 53.4852 34.8352 53.2746C34.4405 53.064 34.0572 52.8344 33.6853 52.5858C33.3134 52.3373 32.9548 52.0717 32.6095 51.787C32.2623 51.5024 31.9321 51.2027 31.6153 50.8858C31.2984 50.5708 30.9986 50.2388 30.7159 49.8935C30.4313 49.5481 30.1657 49.1876 29.9171 48.8157C29.6686 48.4438 29.439 48.0606 29.2265 47.6659C29.0159 47.2713 28.8261 46.8671 28.6535 46.4554C28.4827 46.0418 28.3328 45.6205 28.2019 45.1917C28.0729 44.7648 27.9647 44.3303 27.8774 43.892C27.7901 43.4537 27.7237 43.0116 27.6801 42.5657C27.6365 42.1198 27.6137 41.674 27.6137 41.2262C27.6137 40.7784 27.6365 40.3325 27.6801 39.8885C27.7237 39.4426 27.7901 39.0005 27.8774 38.5622C27.9647 38.122 28.0729 37.6894 28.2019 37.2606C28.3328 36.8337 28.4827 36.4125 28.6535 35.9989C28.8261 35.5852 29.0159 35.1811 29.2265 34.7864C29.439 34.3918 29.6686 34.0085 29.9171 33.6366C30.1657 33.2647 30.4313 32.9061 30.7159 32.5608C30.9986 32.2136 31.2984 31.8834 31.6153 31.5666C31.9321 31.2497 32.2623 30.9499 32.6095 30.6672C32.9548 30.3826 33.3134 30.117 33.6853 29.8684C34.0572 29.6198 34.4405 29.3903 34.8352 29.1778C35.2298 28.9671 35.634 28.7774 36.0476 28.6047C36.4612 28.434 36.8824 28.2841 37.3093 28.1532C37.7382 28.0241 38.1708 27.916 38.611 27.8287C39.0493 27.7414 39.4913 27.675 39.9372 27.6314C40.3812 27.5877 40.8271 27.565 41.2749 27.565C41.7227 27.565 42.1686 27.5877 42.6144 27.6314C43.0603 27.675 43.5024 27.7414 43.9407 27.8287C44.379 27.916 44.8135 28.0241 45.2404 28.1532C45.6692 28.2841 46.0905 28.434 46.5041 28.6047C46.9158 28.7774 47.32 28.9671 47.7146 29.1778C48.1093 29.3903 48.4926 29.6198 48.8644 29.8684C49.2363 30.117 49.5968 30.3826 49.9422 30.6672C50.2875 30.9499 50.6195 31.2497 50.9345 31.5666C51.2514 31.8834 51.5512 32.2136 51.8358 32.5608C52.1204 32.9061 52.386 33.2647 52.6346 33.6366C52.8831 34.0085 53.1127 34.3918 53.3233 34.7864C53.5339 35.1811 53.7256 35.5852 53.8963 35.9989C54.0671 36.4125 54.2189 36.8337 54.3479 37.2606C54.4788 37.6894 54.587 38.122 54.6743 38.5622C54.7615 39.0005 54.826 39.4426 54.8716 39.8885C54.9152 40.3325 54.9361 40.7784 54.9361 41.2262C54.9361 41.674 54.9133 42.1198 54.8697 42.5657C54.826 43.0097 54.7596 43.4518 54.6724 43.8901C54.5832 44.3303 54.475 44.7629 54.3441 45.1898C54.2151 45.6186 54.0633 46.0399 53.8925 46.4516C53.7218 46.8652 53.5301 47.2694 53.3195 47.664C53.107 48.0587 52.8774 48.4401 52.6289 48.8119C52.3803 49.1838 52.1147 49.5443 51.8301 49.8897C51.5474 50.235 51.2476 50.5651 50.9307 50.882C50.6138 51.1989 50.2837 51.4986 49.9384 51.7814C49.5911 52.066 49.2325 52.3316 48.8607 52.5802C48.4888 52.8287 48.1074 53.0583 47.7127 53.2708C47.3181 53.4814 46.9139 53.673 46.5003 53.8438C46.0886 54.0146 45.6673 54.1664 45.2385 54.2954C44.8116 54.4263 44.379 54.5345 43.9388 54.6236C43.5005 54.7109 43.0584 54.7773 42.6144 54.821C42.1686 54.8646 41.7227 54.8874 41.2749 54.8874Z" fill="#002267"/>
</g>
<defs>
<clipPath id="clip0_591_990">
<rect width="100" height="100" fill="white" transform="translate(0.5 0.449219)"/>
</clipPath>
</defs>
</svg>
