<svg width="104" height="92" viewBox="0 0 104 92" fill="none" xmlns="http://www.w3.org/2000/svg">
<path d="M101.822 90.148C101.822 90.148 103.105 55.9721 98.7821 50.3154C93.557 43.4331 63.584 43.8102 60.6865 50.6925C57.9315 57.1035 55.3189 80.1545 65.2941 80.5316C74.2242 80.9087 74.6992 70.4438 70.8517 44.5173C70.0917 39.2849 66.0541 35.1366 60.7815 34.1467C56.3164 33.2982 52.0889 33.6753 52.0889 33.6753H51.8514C51.8514 33.6753 47.6713 33.2982 43.2062 34.1467C37.9812 35.1366 33.9436 39.2849 33.1361 44.5173C29.2885 70.4438 29.7635 80.9087 38.6937 80.5316C48.6688 80.1073 46.0563 57.1035 43.3012 50.6925C40.3562 43.8102 10.3832 43.4331 5.20566 50.3154C0.930596 55.9721 2.16562 90.148 2.16562 90.148" stroke="#01153D" stroke-width="2.96296" stroke-miterlimit="10" stroke-linecap="round"/>
<path d="M80.9227 37.0705C87.4288 37.0705 92.7029 31.8364 92.7029 25.38C92.7029 18.9235 87.4288 13.6895 80.9227 13.6895C74.4167 13.6895 69.1426 18.9235 69.1426 25.38C69.1426 31.8364 74.4167 37.0705 80.9227 37.0705Z" stroke="#01153D" stroke-width="2.96296" stroke-miterlimit="10" stroke-linecap="round"/>
<path d="M51.994 25.381C58.5001 25.381 63.7742 20.147 63.7742 13.6905C63.7742 7.23402 58.5001 2 51.994 2C45.488 2 40.2139 7.23402 40.2139 13.6905C40.2139 20.147 45.488 25.381 51.994 25.381Z" stroke="#01153D" stroke-width="2.96296" stroke-miterlimit="10" stroke-linecap="round"/>
<path d="M22.9696 37.0705C29.4756 37.0705 34.7498 31.8364 34.7498 25.38C34.7498 18.9235 29.4756 13.6895 22.9696 13.6895C16.4636 13.6895 11.1895 18.9235 11.1895 25.38C11.1895 31.8364 16.4636 37.0705 22.9696 37.0705Z" stroke="#01153D" stroke-width="2.96296" stroke-miterlimit="10" stroke-linecap="round"/>
</svg>
