<svg width="97" height="102" viewBox="0 0 97 102" fill="none" xmlns="http://www.w3.org/2000/svg">
<path d="M20.3337 62.4138L29.7407 72.1851C30.5522 73.0291 31.9347 72.6071 32.1752 71.406L35.2708 57.3497C35.5412 56.1486 34.4893 55.1098 33.4074 55.4668L20.9047 59.7519C19.8228 60.1415 19.5222 61.6023 20.3337 62.4138Z" fill="#00AEEF" stroke="#00AEEF" stroke-width="0.746272" stroke-miterlimit="10"/>
<path d="M65.1143 56.8617L66.6771 70.853C66.8274 72.0866 68.1197 72.671 69.0214 71.9243L79.6606 63.1594C80.5623 62.4128 80.3819 60.887 79.3 60.4325L67.0979 55.2061C66.076 54.7516 64.964 55.6605 65.1143 56.8617Z" fill="#00AEEF" stroke="#00AEEF" stroke-width="0.746272" stroke-miterlimit="10"/>
<path d="M47.8335 19.5293L41.4319 31.8327C40.8609 32.9039 41.6122 34.2349 42.7543 34.2024L56.1285 33.9103C57.2706 33.8778 57.9618 32.5144 57.3307 31.4756L50.3581 19.4644C49.757 18.4581 48.3745 18.4905 47.8335 19.5293Z" fill="#00AEEF" stroke="#00AEEF" stroke-width="0.746272" stroke-miterlimit="10"/>
<path d="M32.8057 68.5472C32.8057 68.5472 45.2783 73.0595 45.7291 80.7531C46.0597 86.3692 45.9094 93.5434 45.7892 97.0494C45.7291 98.8997 46.6006 100.653 48.0733 101.562C49.0952 102.146 50.2973 102.308 51.4094 101.01C52.1307 100.166 52.4613 99.062 52.4613 97.9259V82.5386C52.4613 78.8703 51.4394 75.2669 49.4859 72.2804C46.9914 68.5147 42.4832 64.2946 34.2483 61.9248" fill="#00AEEF"/>
<path d="M66.3762 68.2239C62.92 67.5746 55.5867 74.4567 55.5867 74.4567C55.5867 74.4567 52.8217 67.4123 45.9092 62.0235V34.1057L52.5813 33.9434L52.4911 67.3149C52.4911 67.3149 61.1167 60.8224 65.5948 61.2444L66.3762 68.2239Z" fill="#00AEEF"/>
<path d="M7.68029 63.7113C10.8174 63.7113 13.3606 60.9644 13.3606 57.5759C13.3606 54.1874 10.8174 51.4404 7.68029 51.4404C4.54315 51.4404 2 54.1874 2 57.5759C2 60.9644 4.54315 63.7113 7.68029 63.7113Z" stroke="#00AEEF" stroke-width="2.98509" stroke-miterlimit="10"/>
<path d="M7.16967 61.0818V60.1404C6.38826 60.1404 5.57679 59.9781 5.12598 59.7184L5.45657 59.1016C5.93744 59.3289 6.6287 59.4912 7.38006 59.4912C8.3418 59.4912 8.97294 59.1016 8.97294 58.5822C8.97294 58.0628 8.46201 57.7707 7.47022 57.4785C6.11777 57.1214 5.27625 56.6669 5.27625 55.8878C5.27625 55.1087 6.05766 54.5244 7.28989 54.3945V53.4531H8.13142V54.3621C8.94289 54.3945 9.48386 54.5244 9.87457 54.6867L9.54397 55.3035C9.27348 55.2061 8.70245 54.9789 7.86093 54.9789C6.83908 54.9789 6.44837 55.4009 6.44837 55.7904C6.44837 56.2774 6.92924 56.5046 8.10136 56.8617C9.48387 57.2513 10.1751 57.7382 10.1751 58.5498C10.1751 59.2964 9.45381 59.9781 8.07131 60.1404V61.1143H7.16967V61.0818Z" fill="#00AEEF"/>
<path d="M49.3951 14.2709C52.5323 14.2709 55.0754 11.5239 55.0754 8.13543C55.0754 4.74693 52.5323 2 49.3951 2C46.258 2 43.7148 4.74693 43.7148 8.13543C43.7148 11.5239 46.258 14.2709 49.3951 14.2709Z" stroke="#00AEEF" stroke-width="2.98509" stroke-miterlimit="10"/>
<path d="M48.8845 11.6736V10.7322C48.1031 10.7322 47.2916 10.5699 46.8408 10.3102L47.1714 9.69342C47.6523 9.92066 48.3435 10.083 49.0949 10.083C50.0566 10.083 50.6878 9.69342 50.6878 9.17402C50.6878 8.65461 50.1769 8.36245 49.1851 8.07029C47.8326 7.7132 46.9911 7.25872 46.9911 6.47962C46.9911 5.70052 47.7725 5.11619 49.0047 4.98634V4.04492H49.8463V4.95388C50.6577 4.98634 51.1987 5.11619 51.5894 5.2785L51.2588 5.89529C50.9883 5.7979 50.4173 5.57067 49.5758 5.57067C48.5539 5.57067 48.1632 5.99268 48.1632 6.38223C48.1632 6.86917 48.6441 7.09641 49.8162 7.4535C51.1987 7.84305 51.89 8.32999 51.89 9.14155C51.89 9.8882 51.1687 10.5699 49.7862 10.7322V11.7061H48.8845V11.6736Z" fill="#00AEEF"/>
<path d="M88.8571 66.4056C91.9942 66.4056 94.5373 63.6587 94.5373 60.2702C94.5373 56.8817 91.9942 54.1348 88.8571 54.1348C85.7199 54.1348 83.1768 56.8817 83.1768 60.2702C83.1768 63.6587 85.7199 66.4056 88.8571 66.4056Z" stroke="#00AEEF" stroke-width="2.98509" stroke-miterlimit="10"/>
<path d="M88.3464 63.8074V62.866C87.565 62.866 86.7536 62.7037 86.3027 62.444L86.6333 61.8272C87.1142 62.0544 87.8055 62.2168 88.5568 62.2168C89.5186 62.2168 90.1497 61.8272 90.1497 61.3078C90.1497 60.7884 89.6388 60.4962 88.647 60.2041C87.2945 59.847 86.453 59.3925 86.453 58.6134C86.453 57.8343 87.2344 57.25 88.4667 57.1201V56.1787H89.3082V57.0877C90.1196 57.1201 90.6606 57.25 91.0513 57.4123L90.7207 58.0291C90.4502 57.9317 89.8792 57.7045 89.0377 57.7045C88.0158 57.7045 87.6251 58.1265 87.6251 58.516C87.6251 59.003 88.106 59.2302 89.2781 59.5873C90.6606 59.9768 91.3519 60.4638 91.3519 61.2753C91.3519 62.022 90.6306 62.7037 89.2481 62.866V63.8399H88.3464V63.8074Z" fill="#00AEEF"/>
</svg>
